<?xml version="1.0" encoding="UTF-8"?><svg id="logo" xmlns="http://www.w3.org/2000/svg" xmlns:xlink="http://www.w3.org/1999/xlink" viewBox="0 0 1595.3193 464.882"><defs><style>.cls-1{fill:url(#linear-gradient);}.cls-2{clip-path:url(#clippath);}.cls-3{fill:#fff;}.cls-4{fill:#0f1738;}.cls-5{fill:#1b42cc;}.cls-6{fill:url(#linear-gradient-2);}</style><clipPath id="clippath"><path class="cls-4" d="m399.9999,128.667c0-7.1453-3.812-13.7479-10-17.3205L209.9999,7.4236c-6.188-3.5726-13.812-3.5726-20,0L10,111.3467c-6.188,3.5726-10,10.1752-10,17.3205v207.846c0,7.1453,3.8121,13.7479,10.0001,17.3205l180,103.923c6.188,3.5726,13.812,3.5726,20,0l179.9999-103.9232c6.188-3.5726,10-10.1752,10-17.3205v-207.846Z"/></clipPath><linearGradient id="linear-gradient" x1="0" y1="290.1761" x2="200.0001" y2="290.1761" gradientUnits="userSpaceOnUse"><stop offset="0" stop-color="#1b42cc"/><stop offset="1" stop-color="#1c32a5"/></linearGradient><linearGradient id="linear-gradient-2" x1="0" y1="115.47" x2="399.9999" y2="115.47" gradientUnits="userSpaceOnUse"><stop offset="0" stop-color="#02df5b"/><stop offset="1" stop-color="#2047fe"/></linearGradient></defs><path class="cls-4" d="m399.9999,128.667c0-7.1453-3.812-13.7479-10-17.3205L209.9999,7.4236c-6.188-3.5726-13.812-3.5726-20,0L10,111.3467c-6.188,3.5726-10,10.1752-10,17.3205v207.846c0,7.1453,3.8121,13.7479,10.0001,17.3205l180,103.923c6.188,3.5726,13.812,3.5726,20,0l179.9999-103.9232c6.188-3.5726,10-10.1752,10-17.3205v-207.846Z"/><g class="cls-2"><path class="cls-5" d="m200,230.9401l199.9999-115.4701v232.9413s-199.9999,115.4701-199.9999,115.4701"/><path class="cls-1" d="m0,115.4701l200,115.4699v233.9419S.0001,349.4121.0001,349.4121V115.4701Z"/><polygon class="cls-6" points="200 0 200 0 199.9999 0 199.9999 0 199.9999 0 0 115.4702 200 230.9401 399.9999 115.47 200 0"/></g><path class="cls-3" d="m200,401.8801v-170.94l90-51.9616-90,222.9016Z"/><path class="cls-3" d="m200,230.9401l-90,51.9616L200,60v170.94Z"/><path class="cls-3" d="m554.7177,299.8245c-13.0039,0-24.4648-2.8203-34.3867-8.4688-9.9219-5.6445-17.75-13.5117-23.4805-23.6094-5.7344-10.0898-8.5977-21.6406-8.5977-34.6445s2.8633-24.5469,8.5977-34.6445c5.7305-10.0898,13.5586-17.9609,23.4805-23.6094,9.9219-5.6445,21.3828-8.4688,34.3867-8.4688,16.2539,0,29.9375,4.2344,41.0625,12.7031,11.1172,8.4688,18.2188,20.1445,21.3008,35.0312h-34.6445c-1.7148-6.1602-5.0938-10.9922-10.1367-14.5-5.0508-3.5039-10.9961-5.2617-17.8359-5.2617-9.0703,0-16.7695,3.4258-23.0977,10.2656-6.332,6.8438-9.4961,16.3398-9.4961,28.4844,0,12.1523,3.1641,21.6445,9.4961,28.4883,6.3281,6.8438,14.0273,10.2617,23.0977,10.2617,6.8398,0,12.7852-1.707,17.8359-5.1289,5.043-3.4219,8.4219-8.2969,10.1367-14.6289h34.6445c-3.082,14.3711-10.1836,25.918-21.3008,34.6445-11.125,8.7266-24.8086,13.0859-41.0625,13.0859Z"/><path class="cls-3" d="m630.9326,296.7464V111.9768h32.8477v184.7695h-32.8477Z"/><path class="cls-3" d="m729.7333,299.8245c-15.9102,0-28.1914-4.957-36.8281-14.8828-8.6406-9.9219-12.957-24.4648-12.957-43.625v-71.8555h32.5898v68.7734c0,10.9531,2.2227,19.3359,6.6719,25.1523s11.4609,8.7227,21.043,8.7227c9.0664,0,16.5547-3.2461,22.457-9.75,5.9023-6.5,8.8516-15.5664,8.8516-27.2031v-65.6953h32.8477v127.2852h-28.9961l-2.5664-21.5547c-3.9375,7.5273-9.625,13.5156-17.0664,17.9609-7.4414,4.4492-16.1289,6.6719-26.0469,6.6719Z"/><path class="cls-3" d="m898.0771,299.8245c-9.582,0-17.9648-1.7969-25.1484-5.3867-7.1875-3.5938-13.0039-8.6367-17.4531-15.1406l-3.5898,17.4492h-29.2578V111.9768h32.8477v75.7031c4.1055-5.6445,9.5352-10.6055,16.2969-14.8828,6.7578-4.2734,15.5273-6.418,26.3047-6.418,11.9727,0,22.668,2.9141,32.0781,8.7266,9.4062,5.8164,16.8477,13.7734,22.3242,23.8672,5.4766,10.0977,8.2148,21.5547,8.2148,34.3867s-2.7383,24.25-8.2148,34.2578c-5.4766,10.0117-12.918,17.8828-22.3242,23.6133-9.4102,5.7266-20.1055,8.5938-32.0781,8.5938Zm-6.9297-28.7422c10.4336,0,19.0742-3.5039,25.918-10.5195s10.2656-16.0781,10.2656-27.2031c0-11.1172-3.4219-20.2734-10.2656-27.457-6.8438-7.1875-15.4844-10.7813-25.918-10.7813-10.6094,0-19.2891,3.5547-26.0469,10.6523-6.7617,7.1016-10.1367,16.2109-10.1367,27.3281,0,11.125,3.375,20.2344,10.1367,27.332,6.7578,7.1016,15.4375,10.6484,26.0469,10.6484Z"/><path class="cls-3" d="m1027.1552,299.8245c-11.293,0-21.2148-1.8398-29.7695-5.5156s-15.3984-8.7656-20.5273-15.2695c-5.1328-6.5-8.2148-14.0273-9.2422-22.582h33.1055c1.0273,4.9648,3.8047,9.1992,8.3398,12.7031,4.5312,3.5078,10.3945,5.2578,17.582,5.2578,7.1836,0,12.4453-1.4492,15.7812-4.3594s5.0039-6.2461,5.0039-10.0117c0-5.4727-2.3984-9.1914-7.1875-11.1602-4.7891-1.9648-11.4609-3.8906-20.0156-5.7734-5.4766-1.1953-11.0352-2.6523-16.6797-4.3633s-10.8242-3.8906-15.5273-6.5469c-4.707-2.6484-8.5117-6.0703-11.418-10.2617-2.9102-4.1914-4.3633-9.3672-4.3633-15.5273,0-11.293,4.4922-20.7852,13.4727-28.4844s21.5977-11.5508,37.8516-11.5508c15.0547,0,27.0742,3.5117,36.0586,10.5234,8.9805,7.0156,14.3242,16.6797,16.0391,29h-31.0547c-1.8828-9.4102-8.9805-14.1172-21.2969-14.1172-6.1602,0-10.9102,1.1992-14.2461,3.5938-3.3359,2.3984-5.0039,5.3906-5.0039,8.9805,0,3.7656,2.4805,6.7617,7.4414,8.9844s11.5508,4.2773,19.7617,6.1562c8.8945,2.0547,17.0664,4.3242,24.5078,6.8008,7.4414,2.4844,13.3867,6.1602,17.8359,11.0352,4.4453,4.8789,6.6719,11.8516,6.6719,20.918.168,7.8711-1.8828,14.9727-6.1602,21.2969-4.2773,6.332-10.4375,11.293-18.4766,14.8867-8.043,3.5898-17.5391,5.3867-28.4844,5.3867Z"/><path class="cls-3" d="m1093.874,353.2034v-183.7422h29.2578l3.5898,18.2188c4.1055-5.6445,9.5352-10.6055,16.2969-14.8828,6.7578-4.2734,15.5273-6.418,26.3047-6.418,11.9727,0,22.668,2.9141,32.0781,8.7266,9.4062,5.8164,16.8477,13.7734,22.3242,23.8672,5.4766,10.0977,8.2148,21.5547,8.2148,34.3867s-2.7383,24.25-8.2148,34.2578c-5.4766,10.0117-12.918,17.8828-22.3242,23.6133-9.4102,5.7266-20.1055,8.5938-32.0781,8.5938-9.582,0-17.9648-1.7969-25.1484-5.3867-7.1875-3.5938-13.0039-8.6367-17.4531-15.1406v73.9062h-32.8477Zm68.5195-82.1211c10.4336,0,19.0742-3.5039,25.918-10.5195s10.2656-16.0781,10.2656-27.2031c0-11.1172-3.4219-20.2734-10.2656-27.457-6.8438-7.1875-15.4844-10.7813-25.918-10.7813-10.6094,0-19.2891,3.5547-26.0469,10.6523-6.7617,7.1016-10.1367,16.2109-10.1367,27.3281,0,11.125,3.375,20.2344,10.1367,27.332,6.7578,7.1016,15.4375,10.6484,26.0469,10.6484Z"/><path class="cls-3" d="m1289.6787,299.8245c-10.9492,0-19.9297-1.7539-26.9453-5.2578-7.0156-3.5078-12.2344-8.168-15.6523-13.9883-3.4258-5.8125-5.1328-12.2305-5.1328-19.2461,0-11.8047,4.6172-21.3828,13.8555-28.7422,9.2383-7.3555,23.0977-11.0352,41.5742-11.0352h32.3359v-3.0781c0-8.7266-2.4844-15.1406-7.4414-19.25-4.9648-4.1055-11.125-6.1562-18.4766-6.1562-6.6758,0-12.4922,1.582-17.4531,4.7461-4.9648,3.168-8.043,7.8281-9.2383,13.9883h-32.0781c.8555-9.2383,3.9766-17.2812,9.3672-24.125,5.3906-6.8398,12.3594-12.1016,20.9141-15.7812,8.5547-3.6758,18.1328-5.5195,28.7422-5.5195,18.1328,0,32.4219,4.5352,42.8594,13.6016,10.4297,9.0703,15.6523,21.9023,15.6523,38.4961v78.2695h-27.9727l-3.0781-20.5312c-3.7656,6.8477-9.0273,12.4922-15.7852,16.9375-6.7578,4.4492-15.4414,6.6719-26.0469,6.6719Zm7.4414-25.6602c9.4102,0,16.7227-3.082,21.9414-9.2383,5.2188-6.1602,8.5117-13.7695,9.8828-22.8398h-27.9727c-8.7266,0-14.9727,1.582-18.7344,4.7461-3.7656,3.168-5.6445,7.0586-5.6445,11.6758,0,4.9648,1.8789,8.8164,5.6445,11.5508,3.7617,2.7383,8.7266,4.1055,14.8828,4.1055Z"/><path class="cls-3" d="m1378.4716,296.7464v-127.2852h29.2578l3.0781,23.8633c4.6172-8.2109,10.9062-14.7539,18.8633-19.6289,7.9531-4.8789,17.3203-7.3164,28.0977-7.3164v34.6445h-9.2383c-7.1836,0-13.6016,1.1172-19.2461,3.3359-5.6445,2.2266-10.0508,6.0781-13.2148,11.5508-3.168,5.4766-4.75,13.0859-4.75,22.8398v57.9961h-32.8477Z"/><path class="cls-3" d="m1469.8271,296.7464V111.9768h32.8477v109.0664l45.168-51.582h39.0078l-52.0977,57.9961,60.5664,69.2891h-41.0625l-51.582-63.8984v63.8984h-32.8477Z"/></svg>