<svg width="477" height="132" viewBox="0 0 477 132" fill="none" xmlns="http://www.w3.org/2000/svg">
<g clip-path="url(#clip0_7014_84161)">
<path d="M16.3871 51.3257C16.4484 51.1522 16.5375 50.9983 16.6474 50.8479L16.6196 50.9335C16.5433 51.2227 16.5896 51.4888 16.7122 51.667C16.7816 51.6971 16.8556 51.7341 16.9436 51.7549C17.0361 51.7734 17.1229 51.7803 17.2108 51.7803C17.3889 51.6936 17.5636 51.468 17.6342 51.1857L17.6492 51.0874C17.6735 51.2736 17.6735 51.4518 17.6492 51.6357C18.2809 51.2158 18.4498 49.9965 18.8848 49.7015C18.7066 49.6807 18.5377 49.6899 18.3723 49.6807C18.3422 49.8241 18.2566 50.0393 18.0599 50.2498C18.0599 50.2498 18.171 49.9167 18.0541 49.6251C17.8795 49.5696 17.7198 49.4447 17.5972 49.1994C17.3681 49.3672 17.1772 49.4042 16.9875 49.3729C16.7388 49.5731 16.681 49.9074 16.681 49.9074C16.6115 49.6344 16.6347 49.41 16.6752 49.2723C16.5306 49.1994 16.3836 49.1161 16.2217 49.0525C16.4577 49.5175 16.0285 50.6582 16.3836 51.3234L16.3871 51.3257ZM18.0599 95.3671C18.0599 95.3671 18.171 95.034 18.0541 94.7424C17.8795 94.6846 17.7198 94.5608 17.5972 94.3155C17.3681 94.4844 17.1772 94.518 16.9875 94.4914C16.7388 94.6904 16.681 95.0235 16.681 95.0235C16.6115 94.754 16.6347 94.5272 16.6752 94.3896C16.5306 94.3202 16.3836 94.2369 16.2217 94.1698C16.4577 94.6348 16.0285 95.7755 16.3836 96.4407C16.4458 96.2688 16.5336 96.1074 16.6439 95.9617L16.6162 96.0485C16.5398 96.3366 16.5861 96.6026 16.7087 96.7808C16.7781 96.8109 16.8522 96.8479 16.9412 96.8687C17.0286 96.8877 17.1179 96.8962 17.2073 96.8942C17.3855 96.8051 17.5602 96.5783 17.6307 96.2995L17.6469 96.2012C17.6701 96.3852 17.6701 96.5656 17.6469 96.7496C18.2774 96.3296 18.4463 95.1068 18.8813 94.8153C18.7043 94.798 18.5354 94.8072 18.37 94.798C18.3387 94.9414 18.2543 95.1566 18.0576 95.3648L18.0599 95.3671ZM18.0599 72.8027C18.0599 72.8027 18.171 72.4684 18.0541 72.178C17.8795 72.1225 17.7198 71.9964 17.5972 71.7511C17.3681 71.92 17.1772 71.957 16.9875 71.9258C16.7388 72.1259 16.681 72.4591 16.681 72.4591C16.6115 72.1872 16.6347 71.9628 16.6752 71.8252C16.5306 71.7511 16.3836 71.6713 16.2217 71.6053C16.4577 72.0704 16.0285 73.2111 16.3836 73.8751C16.4459 73.7037 16.5337 73.5426 16.6439 73.3973L16.6162 73.4829C16.5398 73.7721 16.5861 74.0382 16.7087 74.2187C16.7781 74.2499 16.8522 74.2835 16.9412 74.3043C17.0285 74.3239 17.1178 74.3332 17.2073 74.3321C17.3855 74.243 17.5602 74.0162 17.6307 73.7351L17.6469 73.6403C17.6701 73.823 17.6701 74.0047 17.6469 74.1886C18.2774 73.7687 18.4463 72.5459 18.8813 72.2543C18.7043 72.2324 18.5354 72.2428 18.37 72.2324C18.3387 72.377 18.2543 72.591 18.0576 72.7992L18.0599 72.8027Z" fill="#EE393F"/>
<path d="M6.31411 30.9325C6.31411 31.482 6.2042 32.0766 5.97515 32.7939C13.003 31.0308 20.3317 30.1389 27.7483 30.1389C35.166 30.1389 42.4912 31.0308 49.526 32.7939C49.2993 32.0766 49.1882 31.4785 49.1882 30.9325C49.1882 30.0591 49.4485 29.2782 49.8592 28.2509C49.8592 28.2509 55.3739 13.5762 55.5243 13.184C54.7492 13.6491 53.5403 13.84 52.2018 13.6803C52.299 14.1731 52.3545 14.6821 52.3545 15.2039C52.3545 15.9825 52.2504 16.7818 52.0422 17.5697L52.0202 17.668L51.9277 17.6217C50.5001 16.8651 49.4948 15.2895 49.179 13.3737C49.1061 13.9128 49.0205 14.4519 48.8886 14.9887C48.4119 16.9447 47.5385 18.7819 46.3227 20.3866C47.6045 19.7029 49.2738 19.6381 49.8719 20.3056C50.0894 20.5462 50.3162 21.0795 49.5284 21.9645C48.5392 23.0832 47.0215 23.5379 45.2596 23.2313C43.4757 22.9189 42.0262 21.8026 41.5171 20.3195L41.4801 20.2177H41.5842C41.8114 20.209 42.0292 20.1251 42.2034 19.9792C42.3777 19.8332 42.4984 19.6335 42.5467 19.4114L42.5896 19.2378L42.6902 19.3882C43.0814 19.9384 43.5961 20.3893 44.193 20.7047C44.1555 20.4057 44.1351 20.1049 44.1316 19.8035C44.1316 18.3459 44.6522 17.5477 45.1705 16.7633L45.587 16.0704C45.9178 15.4757 46.0809 14.9158 46.0809 14.4554C46.0809 13.9961 45.9248 13.6433 45.602 13.4316C45.1092 13.1158 44.4313 13.3495 43.6041 14.1303L43.4202 14.305L43.5463 13.7104C44.223 10.61 44.1768 7.67624 43.4352 6.56913C43.2733 6.32619 43.0824 6.18043 42.8741 6.13762C41.6756 5.90163 39.9623 8.97192 39.1317 12.837L39.0797 13.088L38.9975 13.4293L38.9142 13.2014C38.4677 12.166 37.9459 11.694 37.3571 11.8108C36.6769 11.9358 36.2697 12.7086 36.2697 13.818C36.2697 13.9499 36.2697 14.0875 36.2847 14.2344L36.3946 15.0327C36.4478 15.4329 36.5219 15.8436 36.5219 16.2879C36.5219 17.0363 36.3275 17.8947 35.6542 19.0134C36.3315 18.9417 36.9849 18.723 37.5688 18.3725L37.725 18.2776L37.688 18.4523C37.6 18.885 37.8048 19.3165 38.197 19.5247L38.2895 19.571L38.2155 19.6381C37.4057 20.4872 35.9654 21.4382 33.7188 21.2045C31.043 20.9199 29.7681 18.6664 29.4986 16.8246L29.4836 16.7171L29.5877 16.7356C31.1321 16.9901 32.5388 17.5824 33.5904 18.3945C33.3118 17.3243 33.1699 16.223 33.1681 15.1171C33.1681 13.9071 33.3243 12.66 33.6274 11.4337L33.7535 10.9918C32.791 12.1625 31.2547 13.0278 29.4616 13.3587L29.3459 13.3818L29.3667 13.2719C29.4408 12.8219 29.5541 12.365 29.6918 11.9242C30.1488 10.4805 30.8567 9.15933 31.6469 8.2269C30.3848 8.61337 29.0716 8.80682 27.7517 8.8007C26.382 8.8007 25.0517 8.60172 23.8589 8.2269C24.6433 9.15586 25.3513 10.4805 25.821 11.9242C25.9598 12.365 26.057 12.8219 26.1391 13.2719L26.1611 13.383L26.0454 13.3587C24.2419 13.0267 22.716 12.1602 21.7569 10.9895C22.1373 12.3317 22.3319 13.7197 22.3354 15.1148C22.3354 16.2601 22.1827 17.3672 21.9166 18.391C22.9612 17.5789 24.3714 16.9843 25.9216 16.7332L26.0327 16.7147L26.0084 16.8246C25.7377 18.6675 24.4628 20.9164 21.7928 21.2045C19.5462 21.4405 18.1001 20.4872 17.2903 19.6451L17.2174 19.571L17.3065 19.5247C17.4988 19.4265 17.6534 19.2677 17.7465 19.0728C17.8395 18.8779 17.8658 18.6579 17.8213 18.4466L17.7808 18.2719L17.9382 18.3667C18.7503 18.8665 19.5682 18.9891 19.862 19.0099C19.1795 17.8947 18.9863 17.0363 18.9863 16.2855C18.9863 15.8378 19.0499 15.4272 19.1112 15.0246L19.2223 14.2287C19.2338 14.0875 19.2454 13.9533 19.2454 13.8214C19.2454 12.7236 18.8266 11.9265 18.1487 11.8016C17.561 11.6882 17.037 12.1567 16.6078 13.1933L16.5037 13.42L16.381 12.8219C15.5284 8.89209 13.8487 5.88312 12.6294 6.12837C12.4177 6.1677 12.2337 6.31809 12.0648 6.55988C11.3291 7.66699 11.2839 10.5996 11.9491 13.7011L12.0278 14.0505L12.0799 14.2992L11.8959 14.1245C11.063 13.3402 10.3978 13.1135 9.90151 13.4258C9.57874 13.6375 9.42257 13.9961 9.42257 14.4496C9.42257 14.9031 9.588 15.4642 9.92002 16.0646L10.3423 16.7541C10.8513 17.5361 11.3696 18.3355 11.3696 19.7978C11.3696 20.0708 11.3453 20.3762 11.3082 20.6989C11.9037 20.3847 12.4163 19.934 12.8041 19.3836L12.914 19.2402L12.9544 19.4091C13.0458 19.8602 13.4403 20.1876 13.9158 20.2119H14.0268L13.9898 20.3126C13.4808 21.7956 12.0313 22.9085 10.2382 23.2244C8.47973 23.5309 6.96426 23.0809 5.97746 21.9588C5.19658 21.0703 5.43258 20.5393 5.63156 20.301C6.22965 19.6323 7.89668 19.6971 9.17732 20.3739C7.96068 18.7732 7.08934 16.9375 6.61836 14.9829C6.48577 14.4326 6.38648 13.8747 6.32105 13.3124C6.00523 15.2745 5.04041 16.8408 3.56774 17.6125L3.47981 17.6587L3.45899 17.5604C3.25573 16.7882 3.15155 15.9932 3.14895 15.1946C3.14895 14.6613 3.20448 14.1419 3.3086 13.6433C1.98053 13.8365 0.776249 13.6919 0 13.2476C0.653622 14.998 5.65701 28.2416 5.65701 28.2416C6.06654 29.2712 6.32105 30.0533 6.32105 30.9244L6.31411 30.9325ZM47.2019 25.1679L47.2112 25.1008L48.7105 25.4039L47.2204 29.9306L45.7316 29.6299L47.1996 25.1679H47.2019ZM43.2235 25.582C43.8586 25.582 44.3804 26.0806 44.3804 26.6972C44.3804 27.3127 43.8586 27.8101 43.2235 27.8101C42.5896 27.8101 42.0713 27.3104 42.0713 26.6972C42.0713 26.0841 42.5896 25.582 43.2235 25.582ZM38.7731 23.8653L38.8471 23.7982L40.2909 26.3108L38.1148 28.2787L36.6688 25.759L38.7766 23.8687L38.7731 23.8653ZM33.3636 24.3372C34.1214 24.3372 34.7368 24.9319 34.7368 25.6618C34.7368 26.3907 34.1179 26.9853 33.3636 26.9853C32.6094 26.9853 31.9997 26.3907 31.9997 25.6607C31.9997 24.9319 32.6094 24.3372 33.3648 24.3372H33.3636ZM26.249 23.2128H29.2719V27.7916H26.2502V23.2128H26.249ZM22.1607 24.3372C22.9126 24.3372 23.5339 24.9319 23.5339 25.6618C23.5339 26.3907 22.9149 26.9853 22.1607 26.9853C21.4076 26.9853 20.7944 26.3907 20.7944 25.6607C20.7944 24.9319 21.4041 24.3372 22.1607 24.3372ZM16.6286 23.8803L16.6841 23.7982L18.8636 25.759L17.4222 28.2787L15.2369 26.312L16.6286 23.8803ZM12.302 25.5809C12.9325 25.5809 13.453 26.0806 13.453 26.6972C13.453 27.3127 12.9359 27.8101 12.3008 27.8101C11.6669 27.8101 11.1451 27.3104 11.1451 26.6972C11.1451 26.0841 11.6634 25.582 12.302 25.582V25.5809ZM8.24027 25.1158L8.30968 25.1008L9.78814 29.631L8.29811 29.9318L6.82081 25.4039L8.24027 25.1147V25.1158ZM23.5339 45.7576C24.0244 44.9987 24.7289 44.787 24.7289 44.787C23.7606 44.551 23.8589 44.4133 23.2123 44.1553C23.0531 44.0799 22.879 44.041 22.7028 44.0416C22.5267 44.0422 22.3529 44.0823 22.1942 44.1588C22.137 43.7693 22.0125 43.3928 21.8263 43.0459C21.7963 43.3257 21.7221 43.599 21.6065 43.8557C21.6123 43.4566 21.551 42.5947 21.0212 42.0256C21.0519 42.138 21.0519 42.2567 21.0212 42.3691C20.9228 42.7486 20.5399 42.9603 20.1316 42.862C19.2952 42.6572 19.3044 41.3881 20.2357 41.0723C19.1482 40.7808 18.1024 41.734 17.7137 42.1297C17.7901 41.7097 17.9278 41.3199 18.0145 41.21C18.0018 41.21 17.1584 41.734 16.5858 42.5589C16.6091 42.2994 16.6719 42.0451 16.7721 41.8046C16.7605 41.8046 16.3093 42.1019 15.9322 42.5982C15.828 42.4683 15.6981 42.3615 15.5505 42.2844C15.403 42.2074 15.241 42.1617 15.075 42.1505C14.3808 42.0996 14.404 42.2731 13.4253 42.0232C13.4253 42.0232 13.9621 42.5346 14.0268 43.4265C14.0731 44.079 14.581 44.2629 14.9396 44.3092C14.4283 44.7812 13.1314 46.2122 12.6166 48.0227C12.6166 48.0227 12.9718 47.8434 13.5051 47.7635C13.15 48.1742 12.6224 48.9898 12.3066 50.2971C12.3066 50.2971 12.6224 50.0402 13.0852 49.9084C12.5517 50.9246 12.3753 52.0907 12.5842 53.2193C12.5842 53.2193 12.9209 52.7253 13.3015 52.4314C13.1847 52.7126 12.8469 54.405 13.8984 56.2502C13.8984 56.2502 14.1252 55.7077 14.4445 55.319C14.3982 55.7204 14.4294 56.4284 14.7453 57.0994C15.0877 57.8536 15.2566 58.1995 15.2381 58.4876C15.3607 58.2215 15.643 57.9936 16.3082 57.4915C16.823 57.1017 17.1631 56.6088 17.3412 56.2282C17.4291 56.6482 17.4141 57.1144 17.4141 57.1144C18.9562 56.1403 19.5543 54.7914 19.7197 54.2246C19.8447 54.6445 19.8851 55.1593 19.8851 55.1593C20.6391 54.2145 21.0755 53.0558 21.1322 51.8484C21.5059 52.1607 21.6841 52.5425 21.6841 52.5425C22.0242 51.2607 21.9501 50.326 21.8368 49.7984C22.266 50.1224 22.4927 50.4451 22.4927 50.4451C22.8664 48.2379 22.4464 46.6541 22.2289 46.0722C22.5448 46.218 23.1486 46.3568 23.5362 45.7529V45.7587L23.5339 45.7576ZM16.292 45.0658L17.214 46.24C17.4257 46.528 17.686 46.1046 17.8329 46.2515C17.8884 46.3221 17.7982 46.4968 17.6675 46.6021C17.3644 46.5634 17.059 46.5456 16.7535 46.5488C16.5657 46.4933 16.4065 46.3673 16.3093 46.1972C16.7293 45.9022 16.1011 45.5042 16.2908 45.0692V45.0658H16.292ZM15.0923 43.1836C15.2612 42.7729 14.6388 42.6815 14.6388 42.6815C14.6388 42.6815 14.9489 42.6387 15.1386 42.6907C15.4278 42.7729 15.5921 43.0494 15.5041 43.2854C15.4116 43.5491 15.1941 43.4901 15.1941 43.4901C15.1883 43.4901 14.9812 43.4439 15.0923 43.1836ZM18.8405 50.5492C18.5906 51.4169 18.3697 51.956 17.6605 52.4835C17.6582 52.487 17.723 52.1156 17.5795 51.9282C17.42 52.446 17.0642 52.8808 16.5881 53.1394C16.4411 52.9216 16.3393 52.6764 16.2888 52.4185C16.2383 52.1605 16.2402 51.8951 16.2943 51.6378C16.0826 51.7512 15.9704 52.0879 15.9669 52.0694C15.5955 51.3 15.6754 50.7089 15.8593 49.81C16.1508 48.4472 15.3445 48.2413 15.1178 48.2506C15.4995 48.0666 16.1046 48.3154 16.7489 48.8602C17.3308 49.3345 17.6189 48.8637 17.7508 48.5294C17.6223 48.4978 17.5033 48.436 17.4037 48.3489C17.5171 48.3142 17.6004 48.2471 17.6154 48.1557C17.6582 47.9961 17.5229 47.8341 17.3088 47.7821C17.2338 47.7613 17.1548 47.7589 17.0786 47.7751C17.0173 47.708 17.0115 47.5033 17.0173 47.4257C17.0856 46.8161 17.5576 47.494 17.9925 47.6132C18.4333 47.7207 19.191 47.3216 18.9481 47.8954C18.925 47.9625 18.8208 48.143 18.7341 48.1708C18.6686 48.1259 18.5964 48.0919 18.5201 48.0701C18.3084 48.0238 18.1059 48.1094 18.0654 48.2668C18.0388 48.3582 18.0839 48.4646 18.1672 48.5329C18.0515 48.5664 17.9243 48.5664 17.7866 48.5421C17.7403 48.8915 17.7716 49.456 18.5108 49.2894C19.3345 49.1159 19.9939 49.1668 20.2634 49.5254C20.046 49.397 19.2396 49.2131 18.8347 50.5527L18.8405 50.5492ZM20.1501 47.1435C19.9832 47.2429 19.7861 47.279 19.5948 47.2453C19.3272 47.1014 19.0509 46.9743 18.7676 46.8647C18.6982 46.7212 18.6982 46.5338 18.7861 46.491C18.9828 46.4239 19.0106 46.9167 19.3345 46.764L20.7169 46.1474C20.6799 46.6171 19.9233 46.6842 20.1501 47.1435ZM22.4117 45.2462H22.4094C22.4094 45.2462 22.1884 45.2069 22.2312 44.9281C22.2775 44.6771 22.5598 44.5082 22.8386 44.566C23.0561 44.6181 23.3071 44.787 23.3071 44.787C23.3071 44.787 22.694 44.5672 22.6604 45.0357C22.6419 45.3168 22.4117 45.2462 22.4117 45.2462ZM16.9803 129.068L6.86014 129.087V122.003H14.6643C14.6573 121.879 14.6573 121.747 14.6573 121.615C14.6573 121.05 14.692 120.487 14.7557 119.917L6.86361 119.922V113.617H13.3246C14.7406 113.617 15.8963 114.002 16.086 115.466C16.8584 113.961 17.9211 112.623 19.213 111.53H0.491663V111.813C2.32296 112.119 3.12119 113.845 3.12119 115.481V131.294H18.8567C18.1209 130.632 17.5518 129.878 16.9814 129.072L16.9803 129.068ZM50.8032 120.331C52.3638 119.593 53.4431 118.351 53.4431 116.159C53.4431 113.6 51.2879 111.528 47.9226 111.528H36.1528V111.816C37.9668 112.119 38.7893 113.855 38.7893 115.482V131.291L48.7405 131.285C52.2076 131.285 54.7608 128.685 54.7608 125.701C54.7608 121.689 51.362 120.505 50.8044 120.334L50.8032 120.331ZM42.519 113.444H46.5645C48.5844 113.444 49.9055 114.504 49.9055 116.484C49.9055 118.465 48.6156 119.901 46.598 119.901H42.5155V113.444H42.519ZM46.9173 129.207H42.519V121.995H46.9601C49.3352 122.016 51.0114 123.359 51.0114 125.695C51.0114 129.471 46.9231 129.207 46.9197 129.207H46.9173Z" fill="white"/>
<path d="M17.2156 121.587C17.2156 127.349 21.6163 132 28.8224 132C31.4519 132 34.0166 131.212 36.1418 129.674L35.893 127.773C33.8338 129.585 31.9459 129.709 29.3221 129.685C24.918 129.642 21.2091 126.519 21.2357 121.502C21.2056 116.506 24.918 113.175 29.3221 113.149C32.3716 113.113 35.4338 114.186 35.9544 117.741L36.1418 117.716V113.34C34.0178 111.794 31.4519 111.01 28.8224 111.01C21.6198 111.01 17.2156 115.838 17.2156 121.581V121.587ZM2.4785 43.8038C1.78901 43.7818 1.21521 44.2966 1.19092 44.9653C1.19092 44.9838 1.1967 44.9896 1.1967 45C1.28029 44.871 1.39525 44.7654 1.53082 44.6929C1.66638 44.6205 1.81811 44.5837 1.97179 44.5859C2.15195 44.6 2.32479 44.6632 2.47155 44.7686L2.4542 44.8207C2.33967 45.0659 2.36165 45.3795 2.5213 45.6953C2.75383 46.1731 3.23855 46.5432 3.77417 46.667C4.25542 46.7792 4.60479 46.9979 4.7922 47.3345C5.1543 47.972 4.8593 48.8153 4.76444 49.0999L4.74014 49.1797C4.70149 49.3053 4.71013 49.4407 4.76444 49.5603C4.66054 49.6521 4.53829 49.7207 4.40581 49.7616C4.25547 49.8003 4.09759 49.7986 3.9481 49.7568C3.79861 49.7149 3.6628 49.6344 3.55437 49.5233C3.55437 49.5441 3.56362 49.5534 3.56362 49.5696C3.68278 49.9953 4.02637 50.3019 4.43358 50.4025C4.45787 50.406 4.47985 50.421 4.50762 50.4245C4.55042 50.4337 4.58975 50.4395 4.63256 50.4476H4.73436C4.85699 50.4476 4.97036 50.4418 5.09298 50.406C5.21884 50.3743 5.33797 50.3202 5.44467 50.2463C5.63376 50.3749 5.8569 50.4442 6.08556 50.4453C6.6154 50.4453 7.04228 50.0983 7.11516 49.6459L7.22622 49.7188C8.52884 50.6015 8.98232 51.7421 9.42424 52.8458C9.74585 53.6556 10.0675 54.4075 10.6852 54.9941C10.6771 54.9085 10.6621 54.8321 10.6621 54.7511C10.6621 54.0894 10.9501 53.6394 10.9501 53.6336L11.045 53.4925L11.0971 53.6521C11.4557 54.8992 12.5316 55.1294 12.8751 55.1722C12.6206 54.2213 12.66 53.7609 12.66 53.7609C12.4753 53.9577 12.3213 54.1811 12.203 54.4237C12.0268 53.8454 11.936 53.2444 11.9335 52.6399C11.9335 51.9689 12.0491 51.4205 12.1729 50.9624C12.004 51.0712 11.7715 51.2331 11.7715 51.2331L11.5968 51.3523C11.5968 51.3523 11.7865 50.2799 11.9404 49.9155C8.91754 48.6522 6.59805 47.5034 6.59805 45.5229C6.59805 45.4003 6.60962 45.2777 6.62466 45.155C6.67093 44.8485 6.77505 44.5639 6.88842 44.2966C7.01452 43.9935 7.11863 43.7182 7.11863 43.4359C7.11895 43.2721 7.08118 43.1104 7.0083 42.9636C6.93542 42.8169 6.82943 42.6891 6.6987 42.5903L6.68713 42.5718C6.66439 42.3964 6.60698 42.2273 6.51823 42.0743C6.36995 41.8325 6.14315 41.6488 5.87574 41.5541C5.60833 41.4593 5.31651 41.4592 5.04902 41.5537C5.03745 41.5595 5.0282 41.5688 5.00969 41.5757C5.32204 41.622 5.57655 41.8233 5.68992 42.131C5.73619 42.2432 5.74198 42.3566 5.72463 42.4827C5.62342 42.5083 5.53086 42.5603 5.45644 42.6335C5.38203 42.7067 5.32845 42.7984 5.30122 42.8992C5.21219 42.7473 5.07674 42.6281 4.91483 42.559C4.75108 42.4907 4.57092 42.4718 4.39656 42.5047C4.30245 42.3597 4.17566 42.2389 4.02636 42.1518C3.95516 42.1037 3.8777 42.0656 3.79615 42.0385C3.71847 42.0144 3.63972 41.994 3.56015 41.9771H3.5509C3.49537 41.9714 3.43174 41.9714 3.36696 41.9714C2.95975 41.9714 2.55138 42.1727 2.31538 42.5533C2.31538 42.559 2.30959 42.5683 2.30381 42.5776C2.43851 42.5003 2.59147 42.4607 2.74673 42.4627C2.90199 42.4647 3.05386 42.5084 3.18649 42.5891C3.34614 42.6817 3.45951 42.8263 3.5266 42.9848C3.45225 43.0572 3.39185 43.1427 3.34845 43.237C3.27481 43.4091 3.26096 43.6009 3.30912 43.7818C3.17904 43.7978 3.05372 43.8407 2.94124 43.9079C2.79468 43.8466 2.63923 43.8091 2.48081 43.7969L2.4785 43.8038Z" fill="white"/>
<path d="M52.9347 54.1389C52.8918 53.8231 52.6859 53.5443 52.4141 53.3638C53.2169 52.7565 53.2933 51.8136 53.2933 51.809C52.7843 52.1989 52.362 52.3585 51.9814 52.3863L52.104 52.2752C52.8398 51.5985 53.0874 50.7088 53.1741 50.2704C52.4754 51.1473 51.6968 51.1265 50.7216 51.0686C49.8169 51.0061 48.6809 50.9448 47.2395 51.6563C46.7837 51.8796 46.336 51.9571 45.9195 51.9571C45.5203 51.9597 45.1281 51.8525 44.7858 51.647C48.6994 50.9818 50.813 49.1795 51.1172 47.7831C51.2526 47.1446 51.0131 46.5927 50.4578 46.2341C49.5902 45.6615 48.0493 45.7598 46.1277 46.5037C44.5983 47.1201 43.0267 47.6265 41.4251 48.0191C40.3134 48.1719 39.396 48.0978 38.5688 47.3505C38.5688 47.4882 38.4867 47.9266 38.9518 48.3616C38.8384 48.3465 37.6006 48.1904 36.7815 46.8843C36.7815 46.8843 36.4576 47.6258 36.9435 48.3731C36.1013 48.0886 35.7288 47.5495 35.3933 47.074C35.0751 46.617 34.7778 46.2376 34.1578 46.1115C34.3057 46.2647 34.3893 46.4688 34.3914 46.6818C34.3958 46.8017 34.3761 46.9212 34.3335 47.0333C34.2909 47.1455 34.2263 47.248 34.1435 47.3347C34.0607 47.4215 33.9614 47.4909 33.8514 47.5387C33.7414 47.5865 33.6229 47.6118 33.503 47.6131C33.4382 47.6131 33.3734 47.6131 33.3098 47.5981C33.1725 47.5865 33.0384 47.5501 32.9141 47.4905C32.8829 47.4812 32.8586 47.4673 32.8309 47.4511C32.8309 47.4477 32.8216 47.4477 32.81 47.4419C32.4479 47.2394 32.1448 46.8438 32.1229 46.1427V46.0536C32.1136 45.0969 32.935 44.2385 34.1983 43.9054H34.2191C34.7188 43.7515 35.4858 43.6289 36.5733 43.8441C36.6774 43.8672 36.7815 43.8961 36.8856 43.9112L37.9071 44.1934C38.6973 44.4352 39.4365 44.6527 40.1746 44.456C40.1688 44.456 40.1653 44.4537 40.1653 44.4537C40.0404 44.419 39.3659 44.1957 39.2283 43.4912H39.2398C41.2389 44.0673 41.9862 43.276 42.2291 42.8931C41.8913 43.0285 41.1556 43.2425 40.4973 42.9001L40.362 42.8388L40.4973 42.7612C41.0422 42.4639 41.3707 42.0625 41.4749 41.5813C41.4957 41.4679 41.5119 41.3545 41.5119 41.2446C41.5119 40.7206 41.2805 40.2509 41.1162 39.957V40.0334C41.1162 40.3619 41.0422 40.8281 40.6998 41.2712C40.1051 42.0602 38.9402 42.4801 37.2176 42.5252C34.4528 42.6028 32.8343 43.099 31.954 44.1495C31.4403 44.6862 31.1638 45.3399 31.1638 46.0444C31.1638 46.0722 31.1638 46.1115 31.1731 46.1427C31.1881 46.5939 31.3177 47.0185 31.5595 47.4083L31.6057 47.4939L31.5167 47.5286C31.2471 47.6096 30.6837 47.6443 29.8126 47.1168C30.162 47.6929 31.2066 48.8151 34.3058 49.272C38.4925 50.1755 43.0065 48.7352 46.4759 47.3771C46.6633 47.3135 46.8415 47.2464 47.0069 47.1908C47.0185 47.1908 47.0289 47.1851 47.037 47.1816C47.6848 46.9548 49.4803 46.4181 49.9743 47.1538C50.5261 47.9289 49.4039 48.8 48.9042 49.1436C47.2001 50.341 43.6139 51.5394 37.803 50.666C36.3373 50.467 35.1307 50.4023 33.444 50.319C29.2273 50.1177 23.9578 51.1137 22.3798 51.4446C22.3322 52.2436 22.1888 53.0339 21.953 53.7988L21.8893 53.9955L21.806 53.808C21.806 53.808 21.6499 53.4795 21.4197 53.1093C21.2762 54.044 20.8378 55.3432 19.652 56.6146L19.5294 56.7418C19.5294 56.7418 19.4923 56.1067 19.4738 55.8557C18.7843 56.8367 17.963 57.6395 17.0005 58.2249L16.8651 58.307C16.8651 58.307 16.9172 57.9368 16.9426 57.7344C16.6361 58.1358 16.3202 58.3938 16.0171 58.6287C15.64 58.9271 15.3057 59.2186 15.0176 59.7786L14.8915 60.0296L14.8707 59.7566C14.8094 58.8889 14.5329 58.3198 14.3062 57.842C14.1871 57.5898 14.0888 57.3282 14.0123 57.06C13.9545 57.2346 13.8249 57.562 13.8249 57.562L13.7358 57.4278C13.5477 57.0899 13.3808 56.7407 13.2361 56.382C13.132 56.4399 12.948 56.5486 12.9388 56.5509C10.4689 57.4128 8.61792 57.5343 7.7283 56.898C7.28175 56.5787 7.0631 56.0732 7.08161 55.4057C7.11285 54.029 6.72993 53.2956 5.95947 53.247C5.86253 53.0941 5.73369 52.9641 5.58178 52.8657C5.42987 52.7673 5.25849 52.703 5.07938 52.6771C4.90027 52.6511 4.71767 52.6642 4.5441 52.7155C4.37053 52.7667 4.2101 52.8549 4.0738 52.974L4.05413 53.0087C4.20345 52.9698 4.36062 52.973 4.50823 53.0179C4.65585 53.0628 4.78816 53.1477 4.89053 53.2632C4.94606 53.3175 4.99465 53.3904 5.03514 53.4679C4.88698 53.5764 4.7746 53.7267 4.71238 53.8994C4.25889 53.7722 3.75335 53.8786 3.43406 54.1482C3.30101 54.1151 3.1633 54.1049 3.02684 54.1181C2.3443 54.1875 1.84338 54.7775 1.90238 55.4415C1.91395 55.4508 1.91395 55.4635 1.91395 55.4785C1.9611 55.3739 2.02857 55.2796 2.11246 55.2012C2.19635 55.1228 2.29498 55.0619 2.40261 55.022C2.51025 54.9821 2.62475 54.9639 2.73945 54.9686C2.85416 54.9733 2.96679 55.0007 3.0708 55.0493C3.04187 55.1345 3.02512 55.2233 3.02106 55.3131C3.01528 55.6104 3.16451 55.8985 3.38547 56.1125C3.24894 56.1755 3.12876 56.2691 3.03427 56.3861C2.93977 56.5031 2.8735 56.6402 2.84059 56.7869C2.82387 56.8707 2.81765 56.9562 2.82208 57.0414C2.81283 57.0414 2.8001 57.0414 2.78506 57.0507C2.63426 57.1045 2.49571 57.1878 2.37752 57.2957C2.25933 57.4037 2.16388 57.5342 2.09676 57.6795C2.02963 57.8249 1.99219 57.9822 1.98663 58.1422C1.98106 58.3021 2.00748 58.4616 2.06434 58.6113C2.06821 58.6244 2.07585 58.6361 2.08632 58.6448C2.10622 58.4932 2.16763 58.3499 2.26378 58.2309C2.35992 58.1119 2.48707 58.0217 2.6312 57.9704C2.7721 57.9173 2.92428 57.9014 3.07312 57.9241C3.21425 58.1439 3.44678 58.314 3.74988 58.3846C4.05991 58.4517 4.3607 58.4077 4.56546 58.2527C4.79567 58.0838 5.02589 58.0097 5.24337 58.056C5.49788 58.1046 5.73619 58.2955 5.93286 58.6391C6.37709 59.3864 6.99948 59.7751 8.00131 59.9232C8.00131 59.9718 8.01057 60.0203 8.03602 60.0736C8.10186 60.2791 8.24104 60.4533 8.42703 60.5629C8.37789 60.6537 8.30912 60.7323 8.22574 60.7931C8.10206 60.8891 7.95481 60.9499 7.79949 60.9692C7.64416 60.9886 7.48649 60.9657 7.34306 60.903C7.35116 60.9158 7.35463 60.9285 7.36042 60.9377C7.47882 61.083 7.62819 61.2 7.79761 61.2801C7.96703 61.3602 8.15221 61.4014 8.33961 61.4007C8.52702 61.4001 8.7119 61.3575 8.88075 61.2762C9.04959 61.1949 9.19813 61.0769 9.3155 60.9308C9.46908 60.952 9.62543 60.9393 9.77361 60.8938C10.1496 60.7665 10.4203 60.4495 10.4596 60.1036C10.6736 60.1279 12.6507 60.3177 12.66 60.3269C13.7786 60.5201 13.8469 60.5571 15.0142 61.0904C15.9824 61.5381 16.7032 62.4729 16.9877 62.8836L16.9912 62.6811C16.9912 62.3375 16.9565 62.0286 16.8836 61.7313L16.8536 61.6029L16.982 61.6423C17.6876 61.8621 19.3824 62.2311 20.3195 61.0326C20.2278 61.0272 20.1388 60.9999 20.0599 60.953C19.981 60.9061 19.9145 60.841 19.866 60.763C19.8013 60.6499 19.7667 60.522 19.7654 60.3917C19.7654 60.202 19.8417 59.966 20.0314 59.7265C20.4791 59.1747 20.5867 58.565 20.5867 58.1139C20.5867 57.709 20.5057 57.4186 20.4976 57.3758C21.3005 58.0097 20.9176 59.6004 20.9176 59.6004C22.4412 59.6166 23.7715 59.1377 26.9309 56.6342C28.8131 55.1477 30.5785 54.1574 32.1784 53.7375L32.3346 53.6854C32.1205 54.0498 31.4762 55.7215 34.1092 56.1588C34.4285 56.2259 34.757 56.2745 35.1237 56.3092L36.0677 56.4283C36.4935 56.4746 36.837 56.5116 36.9909 56.5671L37.6526 56.7592C37.6526 56.7592 37.6804 56.7684 37.7174 56.7846C37.965 56.9466 38.0691 57.1733 38.0598 57.525V57.5377L38.0263 57.5539C35.9555 58.4887 33.9773 58.0398 32.8251 57.3052C31.8568 56.677 31.0898 56.6227 30.6363 57.1247H30.634C30.3093 57.1122 29.9929 57.2291 29.7543 57.4497C29.5157 57.6703 29.3744 57.9766 29.3615 58.3013V58.336C29.4438 58.2053 29.5583 58.098 29.694 58.0243C29.8297 57.9505 29.9821 57.9129 30.1365 57.9149C30.2273 57.9154 30.317 57.9343 30.4003 57.9704C30.3845 58.0961 30.3939 58.2237 30.4281 58.3456C30.4623 58.4676 30.5205 58.5815 30.5993 58.6807C30.612 58.6969 30.627 58.7038 30.6363 58.7154H30.6432C30.5414 58.8509 30.4836 59.0145 30.4778 59.1839C30.4373 59.2082 30.3945 59.2244 30.3506 59.251C29.7478 59.5819 29.5396 60.3153 29.867 60.8972C29.867 60.8972 29.8832 60.9158 29.889 60.9285C29.8864 60.7199 29.9611 60.5178 30.0986 60.361C30.2362 60.2042 30.4269 60.1039 30.634 60.0793C30.7459 60.2315 30.9018 60.3457 31.0805 60.4067C31.1337 60.4252 31.1847 60.4345 31.2286 60.4414V60.5178C31.2286 60.704 31.283 60.8637 31.394 60.9921C31.2543 61.2783 31.2329 61.6079 31.3345 61.9097C31.436 62.2116 31.6523 62.4612 31.9366 62.6048C31.9459 62.6071 31.9667 62.6105 31.9759 62.6163C31.8883 62.4914 31.8363 62.345 31.8255 62.1927C31.8146 62.0405 31.8455 61.8882 31.9146 61.7522C31.9761 61.6448 32.0597 61.5517 32.1599 61.4791C32.7545 61.7834 33.5724 61.2617 33.6985 61.1517C35.642 59.4778 36.8278 60.0412 37.6862 60.4715C38.0298 60.6335 38.3271 60.7804 38.6024 60.7468L38.6371 60.7411C38.688 60.8394 38.7412 60.9377 38.7563 61.0534C38.7744 61.2052 38.7497 61.3591 38.6851 61.4976C38.6206 61.6362 38.5186 61.754 38.3907 61.8378H38.437C38.5964 61.8198 38.7507 61.7705 38.8909 61.6926C39.0312 61.6147 39.1546 61.5099 39.2541 61.384C39.3536 61.2582 39.4272 61.1139 39.4706 60.9594C39.514 60.805 39.5264 60.6435 39.5071 60.4842C39.5013 60.4565 39.4793 60.4264 39.4793 60.3917C39.5924 60.2989 39.6823 60.1811 39.7419 60.0476C39.8016 59.9141 39.8293 59.7685 39.8229 59.6224C40.1722 59.509 40.6986 59.2985 41.2504 58.926C41.4471 59.1932 41.5119 59.6224 41.2967 60.2506C41.2967 60.2506 42.1667 59.6467 42.0625 58.3256C42.4397 58.6819 42.4559 59.3008 42.4281 59.5865C42.6791 59.332 43.0956 58.8195 43.0956 58.0595C43.0956 57.9577 43.0864 57.8628 43.0678 57.7529L43.0563 57.6673C43.0473 57.5897 43.0423 57.5117 43.0412 57.4336C43.0412 57.1791 43.1026 56.9743 43.2402 56.8182C43.4392 56.603 43.7273 56.5486 43.9632 56.5452C43.3617 56.0882 42.324 56.094 41.6553 56.1032H41.4286C40.7298 56.1194 40.3527 55.8372 40.2301 55.5711C40.2052 55.5019 40.1908 55.4294 40.1873 55.3559C40.1873 55.2483 40.2544 55.1627 40.3134 55.0771C40.3134 55.0771 39.617 54.5993 38.909 54.1794L40.0739 54.5554C41.107 54.8712 42.0544 55.1569 42.9672 55.3073C45.5609 55.7261 46.2411 55.1292 47.1943 54.2777L47.2614 54.2222C47.8804 53.6727 48.4715 53.1648 49.0569 52.989L49.2929 52.9219L49.1402 53.1128C48.4542 53.9862 48.8186 55.025 49.0754 55.7909C49.1795 56.0801 49.2628 56.33 49.2871 56.5359C49.3183 56.8575 49.2663 57.097 49.1136 57.2682C48.8591 57.5505 48.3836 57.5574 47.9567 57.5574C46.7224 57.5875 46.4736 57.9554 46.4065 58.2399C46.3302 58.2677 46.2342 58.2978 46.152 58.3441C46.0097 58.4162 45.8832 58.5159 45.7798 58.6374C45.6764 58.759 45.5982 58.8998 45.5498 59.0518C45.5013 59.2038 45.4836 59.364 45.4976 59.5229C45.5116 59.6818 45.5571 59.8364 45.6314 59.9775C45.6372 59.9891 45.643 59.996 45.6523 60.0088C45.6554 59.8564 45.6991 59.7076 45.7788 59.5777C45.8585 59.4478 45.9713 59.3414 46.1057 59.2695C46.2135 59.2222 46.3285 59.1932 46.4459 59.1839C46.373 59.5854 46.6205 59.9625 47.0497 60.0817C47.1514 60.1095 47.2568 60.1212 47.3621 60.1164H47.4049C47.3716 60.2957 47.4089 60.481 47.509 60.6335C47.583 60.7781 47.6872 60.8764 47.8156 60.9435C47.804 60.9713 47.8005 60.9863 47.789 61.0071C47.5807 61.648 47.9451 62.3225 48.5941 62.5307C48.6069 62.5307 48.6219 62.5365 48.6312 62.5365C48.5244 62.427 48.4488 62.291 48.4122 62.1426C48.3755 61.9941 48.3793 61.8386 48.4229 61.692C48.4741 61.5392 48.5676 61.404 48.6925 61.3021C48.8318 61.3619 48.9839 61.3859 49.1349 61.3717C49.2858 61.3576 49.4308 61.3058 49.5566 61.2212C49.7434 61.1003 49.8831 60.919 49.9523 60.7075C50.0796 60.8791 50.2558 61.0082 50.4578 61.0777C50.6753 61.1552 50.9113 61.1645 51.1207 61.1147C51.1415 61.1668 51.1508 61.2073 51.182 61.2559C51.4793 61.854 52.2232 62.1015 52.834 61.8042C52.8456 61.8019 52.8606 61.7926 52.8768 61.7834C52.7205 61.7812 52.5678 61.7363 52.4353 61.6535C52.3027 61.5707 52.1954 61.4532 52.1249 61.3137C52.0253 61.1185 52.007 60.8919 52.074 60.6832L52.0971 60.674C52.2518 60.5878 52.3808 60.462 52.4708 60.3095C52.5609 60.1571 52.6088 59.9834 52.6096 59.8063C52.6096 59.6039 52.5517 59.3494 52.4013 59.0578C52.2316 58.7454 52.0292 58.4518 51.7975 58.1821C51.5615 57.8929 51.4111 57.6974 51.4111 57.3029C51.4111 57.1433 51.4331 56.9616 51.4851 56.7198L51.7547 55.9471L52.0057 55.2981C52.2759 55.2718 52.5254 55.142 52.7021 54.936C52.7542 54.951 52.8155 54.9603 52.8791 54.9846C53.1706 55.1257 53.3488 55.401 53.3696 55.6995C53.3812 55.6868 53.3812 55.6775 53.3916 55.6683C53.5137 55.4029 53.5342 55.102 53.4494 54.8225C53.3645 54.543 53.1802 54.3043 52.9312 54.1516L52.9347 54.1389ZM1.19439 90.1286C1.27501 89.9968 1.38936 89.889 1.52562 89.8162C1.66188 89.7433 1.81511 89.7082 1.96948 89.7145C2.15193 89.7243 2.32672 89.791 2.46924 89.9053L2.45073 89.9412C2.33736 90.1934 2.35818 90.5058 2.51783 90.8239C2.75151 91.2959 3.23508 91.6765 3.77186 91.7899C4.25311 91.8974 4.60248 92.1334 4.78989 92.4666C5.15083 93.0925 4.85699 93.9566 4.76212 94.2331L4.73667 94.3153C4.69795 94.4367 4.70705 94.5683 4.76212 94.6832C4.66422 94.784 4.53996 94.8554 4.4035 94.8891C4.25361 94.9292 4.09577 94.9289 3.94603 94.8882C3.79628 94.8476 3.65996 94.7681 3.5509 94.6577C3.5509 94.6739 3.56015 94.6832 3.56015 94.6959C3.67931 95.1239 4.02289 95.4339 4.43011 95.5473C4.45556 95.5566 4.47638 95.5566 4.50415 95.5624C4.54546 95.5723 4.58775 95.5778 4.63024 95.5785C4.66379 95.5901 4.69965 95.5901 4.73089 95.5901C4.85352 95.5901 4.96689 95.5786 5.08951 95.5473C5.22139 95.508 5.33477 95.4548 5.44235 95.3796C5.62809 95.5154 5.85199 95.5891 6.08209 95.5901C6.61309 95.5901 7.03881 95.235 7.11169 94.7873L7.22275 94.8486C8.52537 95.7405 8.97885 96.8742 9.42077 97.9721C9.74238 98.7877 10.064 99.5408 10.6829 100.124C10.6736 100.041 10.6598 99.9584 10.6598 99.8878C10.6598 99.2226 10.9467 98.7691 10.9467 98.7599L11.0415 98.628L11.0936 98.79C11.4522 100.031 12.5281 100.259 12.8717 100.299C12.6172 99.3638 12.6576 98.8918 12.6576 98.8918C12.5651 98.9843 12.3592 99.2342 12.2007 99.5535C12.0242 98.976 11.9333 98.3758 11.9311 97.7719C11.9311 97.1044 12.0468 96.5503 12.1695 96.0934L11.768 96.3745L11.5945 96.4971C11.5945 96.4971 11.7831 95.4097 11.9369 95.051C8.91523 93.7785 6.59458 92.639 6.59458 90.6434C6.59458 90.53 6.60615 90.4074 6.62234 90.279C6.66862 89.9724 6.77273 89.6844 6.88611 89.4229C7.01105 89.1175 7.11516 88.8445 7.11516 88.5622C7.11802 88.4016 7.08148 88.2427 7.00873 88.0995C6.93508 87.9504 6.82823 87.8202 6.69638 87.7189L6.68366 87.6958C6.66862 87.6125 6.65242 87.5199 6.61887 87.4378C6.59458 87.3545 6.55409 87.2839 6.51476 87.2076C6.43366 87.073 6.32624 86.9561 6.19894 86.864C6.03504 86.7445 5.84503 86.6658 5.64465 86.6344C5.44426 86.603 5.23929 86.6198 5.04671 86.6835C5.03514 86.6893 5.02473 86.6985 5.00738 86.7055C5.31973 86.7518 5.57423 86.9565 5.68761 87.2562C5.73388 87.3765 5.73966 87.4991 5.72116 87.6148C5.61974 87.6399 5.52694 87.6918 5.45245 87.7651C5.37796 87.8383 5.32453 87.9303 5.29775 88.0312C5.20671 87.8813 5.07183 87.763 4.91136 87.6923C4.74889 87.6205 4.56777 87.6022 4.39424 87.6402C4.29998 87.4935 4.17284 87.3707 4.02289 87.2816C3.95238 87.2323 3.87475 87.1941 3.79268 87.1682C3.71633 87.1335 3.63998 87.1277 3.55668 87.1069H3.54743C3.49306 87.1034 3.42827 87.0977 3.36349 87.1034C2.95628 87.1034 2.54906 87.3152 2.31307 87.6761C2.31307 87.6923 2.30612 87.7015 2.30034 87.7131C2.43505 87.6368 2.58734 87.597 2.74214 87.5976C2.89694 87.5983 3.04891 87.6392 3.18302 87.7166C3.33386 87.8109 3.45247 87.9489 3.52313 88.1122C3.4516 88.1815 3.39182 88.262 3.34614 88.3505C3.27214 88.5282 3.25793 88.7251 3.30565 88.9116C3.17488 88.922 3.04861 88.9641 2.93777 89.0342C2.79123 88.9736 2.63641 88.9354 2.4785 88.9209C2.31714 88.9126 2.15574 88.9363 2.00357 88.9907C1.85141 89.045 1.71148 89.1288 1.59183 89.2374C1.47218 89.346 1.37517 89.4772 1.30636 89.6233C1.23756 89.7695 1.19833 89.9279 1.19092 90.0893C1.19092 90.0974 1.1967 90.1159 1.1967 90.1251L1.19439 90.1286Z" fill="white"/>
<path d="M51.7797 101.06L52.0307 100.403C52.2981 100.373 52.5455 100.247 52.726 100.048C52.778 100.063 52.8394 100.072 52.9041 100.094C53.1957 100.233 53.3727 100.505 53.3946 100.808C53.4062 100.805 53.4062 100.793 53.4155 100.783C53.6769 100.22 53.4652 99.5941 52.9562 99.2668C52.9134 98.9475 52.7075 98.6652 52.4356 98.4789C53.2385 97.8774 53.3148 96.9496 53.3148 96.9496C52.8058 97.3163 52.3836 97.4887 52.0029 97.5188L52.1256 97.3996C52.8613 96.7228 53.1089 95.8517 53.1957 95.4098C52.4969 96.2809 51.7184 96.2659 50.7431 96.1976C49.8396 96.1363 48.7024 96.0657 47.261 96.7899C46.8052 97.0097 46.3575 97.093 45.941 97.093C45.4204 97.0872 45.0329 96.9276 44.8073 96.7772C48.721 96.1155 50.8345 94.3073 51.1388 92.9064C51.2741 92.2817 51.0347 91.7229 50.4794 91.3585C49.6117 90.7951 48.0708 90.8865 46.1493 91.6466C44.4811 92.2898 42.9101 92.7988 41.4467 93.1539C40.3349 93.3136 39.4175 93.2407 38.5904 92.4899C38.5904 92.6218 38.5083 93.0626 38.9733 93.4952C38.8599 93.486 37.6221 93.3333 36.803 92.0179C36.803 92.0179 36.4791 92.7652 36.965 93.516C36.1228 93.228 35.7503 92.6889 35.4148 92.2134C35.0967 91.7507 34.7994 91.362 34.1793 91.2509C34.3263 91.3996 34.41 91.5995 34.413 91.8085C34.4186 91.9297 34.3999 92.0507 34.358 92.1645C34.3161 92.2783 34.2519 92.3825 34.1691 92.4712C34.0863 92.5598 33.9866 92.6309 33.8759 92.6804C33.7652 92.7299 33.6458 92.7568 33.5245 92.7595C33.4597 92.7595 33.395 92.7479 33.3313 92.7375C33.1942 92.7272 33.0601 92.6919 32.9357 92.6334C32.9044 92.6218 32.8802 92.6033 32.8524 92.594C32.8524 92.594 32.8431 92.5848 32.8316 92.5848C32.4695 92.3789 32.1664 91.9832 32.1444 91.2694V91.1931C32.1351 90.2329 32.9565 89.3757 34.2198 89.0413H34.2406C34.7404 88.8909 35.5074 88.7521 36.5948 88.98C36.6989 89.0043 36.803 89.0263 36.9072 89.0541L37.9287 89.3386C38.7188 89.5654 39.458 89.7806 40.1961 89.5897L40.1868 89.5874C40.0619 89.5469 39.3875 89.3386 39.2498 88.6214L39.2614 88.6306C41.2604 89.2068 42.0077 88.4004 42.2507 88.0291C41.9129 88.1587 41.1771 88.3646 40.5189 88.0453L40.3835 87.9689L40.5189 87.9007C41.0637 87.5941 41.3923 87.1927 41.4964 86.7184C41.519 86.6063 41.5313 86.4925 41.5334 86.3783C41.5334 85.838 41.302 85.3637 41.1378 85.0814V85.1508C41.1378 85.4921 41.0637 85.9583 40.7213 86.4026C40.1267 87.1869 38.9617 87.6068 37.2392 87.6519C34.4743 87.7352 32.8559 88.2292 31.9755 89.2831C31.7262 89.5292 31.528 89.8223 31.3924 90.1453C31.2568 90.4683 31.1864 90.815 31.1854 91.1653C31.1854 91.1896 31.1854 91.2301 31.1946 91.2636C31.2097 91.7171 31.3392 92.1463 31.581 92.5362L31.6273 92.6149L31.5382 92.6461C31.2687 92.7386 30.7053 92.7745 29.8342 92.247C30.1835 92.8208 31.2282 93.9394 34.3274 94.3964C38.514 95.2941 43.0281 93.8562 46.4975 92.5015C46.6728 92.4353 46.8498 92.374 47.0285 92.3175C47.04 92.3152 47.0505 92.3152 47.0586 92.3083C47.7064 92.0723 49.5018 91.5448 49.9958 92.2782C50.5476 93.0568 49.4255 93.9418 48.9257 94.2703C47.2217 95.4746 43.6354 96.6766 37.8245 95.7997C36.3588 95.5937 35.1522 95.5336 33.4655 95.4596C29.2488 95.2455 23.9793 96.2439 22.4014 96.5748C22.3537 97.3737 22.2104 98.1641 21.9745 98.929L21.9109 99.1256L21.8276 98.929C21.8276 98.929 21.6714 98.6073 21.4412 98.2429C21.2977 99.1869 20.8593 100.48 19.6735 101.752L19.5509 101.867C19.5509 101.867 19.5139 101.237 19.4954 100.986C18.8059 101.963 17.9845 102.775 17.022 103.355L16.8867 103.441C16.8867 103.441 16.9387 103.07 16.9642 102.865C16.6576 103.269 16.3418 103.517 16.0387 103.753C15.6615 104.05 15.3272 104.345 15.0392 104.918L14.9131 105.167L14.8922 104.89C14.8309 104.008 14.5544 103.45 14.3277 102.965C14.2052 102.716 14.1068 102.455 14.0339 102.187C13.976 102.356 13.8464 102.699 13.8464 102.699L13.7574 102.549C13.5694 102.212 13.4024 101.865 13.2576 101.508C13.1535 101.575 12.9695 101.679 12.9603 101.685C10.4904 102.537 8.63944 102.666 7.74982 102.025C7.30328 101.707 7.08463 101.203 7.10314 100.527C7.13438 99.1465 6.75146 98.4014 5.98099 98.3621C5.88309 98.2103 5.75365 98.0813 5.60146 97.9839C5.44927 97.8865 5.27791 97.8231 5.09901 97.7978C4.92011 97.7726 4.73787 97.7861 4.56469 97.8376C4.3915 97.8891 4.23142 97.9772 4.09532 98.096C4.09048 98.1071 4.08383 98.1172 4.07566 98.1261C4.22446 98.0937 4.37902 98.0991 4.52516 98.142C4.6713 98.1848 4.80434 98.2637 4.91206 98.3714C4.96759 98.4384 5.01618 98.5148 5.05667 98.5761C4.91047 98.6924 4.79885 98.8464 4.73391 99.0215C4.28042 98.8862 3.77487 98.9937 3.45558 99.2725C3.32207 99.2424 3.18506 99.2307 3.04837 99.2378C2.36583 99.3061 1.86491 99.9007 1.92391 100.56C1.93548 100.568 1.93548 100.581 1.93548 100.596C1.99871 100.455 2.09852 100.333 2.2246 100.243C2.35069 100.153 2.49848 100.098 2.65273 100.085C2.80659 100.073 2.95351 100.107 3.09233 100.168C3.06238 100.254 3.04561 100.343 3.04259 100.434C3.0443 100.585 3.07759 100.735 3.14034 100.873C3.20308 101.011 3.29391 101.134 3.407 101.235C3.27075 101.299 3.15088 101.393 3.05647 101.51C2.96206 101.627 2.8956 101.765 2.86212 101.911C2.84508 101.992 2.83885 102.074 2.84361 102.157C2.83435 102.157 2.82163 102.157 2.80659 102.16C2.16569 102.408 1.8464 103.109 2.08587 103.725C2.08934 103.741 2.09512 103.744 2.10785 103.762C2.12684 103.61 2.18787 103.466 2.28412 103.346C2.38036 103.227 2.508 103.137 2.65273 103.086C2.79267 103.028 2.94705 103.015 3.09464 103.049C3.25338 103.281 3.49595 103.443 3.7714 103.5C4.08144 103.573 4.38222 103.521 4.58699 103.376C4.8172 103.195 5.04741 103.128 5.2649 103.171C5.51941 103.223 5.75772 103.416 5.95439 103.762C6.39862 104.507 7.02101 104.896 8.02284 105.044C8.02262 105.097 8.03449 105.149 8.05755 105.197C8.12696 105.403 8.27156 105.577 8.44856 105.685C8.39359 105.772 8.32572 105.85 8.24727 105.916C8.12283 106.011 7.97561 106.071 7.82058 106.09C7.66555 106.109 7.50823 106.086 7.36459 106.025C7.37269 106.033 7.37616 106.04 7.38194 106.055C7.59001 106.308 7.88837 106.471 8.21394 106.508C8.53951 106.545 8.86675 106.454 9.12648 106.254C9.20671 106.193 9.27797 106.121 9.33818 106.04C9.49026 106.069 9.64695 106.06 9.79514 106.016C10.1711 105.884 10.4418 105.565 10.4812 105.221C10.6952 105.24 12.6722 105.436 12.6815 105.436C13.8002 105.65 13.8684 105.682 15.0357 106.206C16.004 106.646 16.7247 107.594 17.0093 107.995C17.0093 107.926 17.0127 107.863 17.0127 107.802C17.0127 107.465 16.978 107.143 16.9052 106.858L16.8751 106.717L17.0035 106.757C17.7092 106.984 19.404 107.343 20.341 106.147C20.2506 106.14 20.1628 106.114 20.0843 106.069C20.0057 106.024 19.9384 105.961 19.8875 105.886C19.8218 105.771 19.7872 105.64 19.7869 105.507C19.7869 105.308 19.8632 105.087 20.053 104.851C20.5007 104.284 20.6082 103.673 20.6082 103.223C20.6082 102.828 20.5273 102.541 20.5192 102.491C21.322 103.125 20.9391 104.716 20.9391 104.716C22.4627 104.727 23.7931 104.244 26.9524 101.752C28.8346 100.25 30.6 99.2668 32.1999 98.8434L32.3561 98.8063C32.1421 99.165 31.4977 100.832 34.1307 101.28C34.45 101.341 34.7785 101.393 35.1453 101.427L36.0893 101.547C36.515 101.593 36.8586 101.623 37.0124 101.688L37.6742 101.885C37.6742 101.885 37.7019 101.896 37.7389 101.906C37.9865 102.056 38.0906 102.285 38.0814 102.644V102.666L38.0478 102.675C35.977 103.606 33.9988 103.156 32.8466 102.417C31.8783 101.785 31.1113 101.74 30.6578 102.236H30.6555C30.3314 102.225 30.0159 102.342 29.7776 102.562C29.5392 102.781 29.3974 103.087 29.383 103.411V103.446C29.4664 103.317 29.5811 103.21 29.7166 103.136C29.852 103.062 30.0038 103.024 30.1581 103.024C30.2564 103.024 30.3397 103.052 30.4218 103.086C30.4053 103.21 30.4145 103.336 30.4487 103.457C30.4829 103.578 30.5415 103.69 30.6208 103.788C30.6335 103.809 30.6486 103.818 30.6578 103.824L30.6648 103.831C30.5622 103.961 30.5042 104.121 30.4993 104.286V104.293C30.4589 104.314 30.4161 104.333 30.3721 104.363C30.2299 104.438 30.1042 104.54 30.0025 104.665C29.9008 104.789 29.8251 104.933 29.78 105.087C29.7349 105.241 29.7212 105.403 29.7399 105.562C29.7585 105.722 29.8091 105.876 29.8885 106.016C29.8955 106.027 29.9047 106.031 29.9105 106.037C29.9105 105.746 30.0667 105.451 30.3582 105.295C30.4461 105.237 30.5514 105.219 30.6555 105.2C30.762 105.339 30.9251 105.451 31.1021 105.522C31.1553 105.544 31.2062 105.544 31.2501 105.559V105.635C31.2501 105.81 31.3045 105.972 31.4156 106.107C31.2759 106.392 31.2545 106.721 31.3561 107.022C31.4577 107.323 31.6741 107.571 31.9581 107.713C31.9674 107.72 31.9882 107.72 31.9975 107.729C31.9099 107.605 31.8579 107.459 31.8471 107.307C31.8363 107.155 31.8671 107.003 31.9362 106.867C31.9951 106.757 32.0791 106.662 32.1814 106.59C32.776 106.886 33.5939 106.374 33.72 106.261C35.6635 104.591 36.8493 105.163 37.7077 105.583C38.0513 105.752 38.3486 105.886 38.6239 105.86L38.6586 105.843C38.7095 105.929 38.7628 106.042 38.7778 106.169C38.7947 106.321 38.7696 106.475 38.7051 106.614C38.6406 106.752 38.5394 106.871 38.4122 106.956H38.4585C39.1364 106.877 39.6142 106.261 39.5286 105.592C39.5228 105.562 39.5008 105.544 39.5008 105.507C39.6152 105.412 39.7058 105.291 39.7654 105.155C39.825 105.019 39.8521 104.871 39.8444 104.722C40.3505 104.559 40.8311 104.326 41.272 104.028C41.4686 104.299 41.5334 104.731 41.3182 105.359C41.3182 105.359 42.1882 104.756 42.0841 103.431C42.4612 103.79 42.4774 104.409 42.4496 104.682C42.7007 104.455 43.1171 103.922 43.1171 103.162C43.1171 103.069 43.1079 102.972 43.0894 102.873L43.0778 102.772C43.0687 102.697 43.0637 102.621 43.0628 102.545C43.0628 102.279 43.1241 102.077 43.2618 101.932C43.4607 101.712 43.7488 101.666 43.9848 101.666C43.3832 101.203 42.3455 101.203 41.6769 101.215H41.4501C40.7514 101.228 40.3743 100.94 40.2516 100.676C40.2308 100.603 40.2088 100.538 40.2088 100.471C40.2088 100.363 40.2759 100.28 40.3349 100.189C40.3349 100.189 39.6385 99.7075 38.9305 99.2911L40.0955 99.6612C41.1285 99.9736 42.076 100.272 42.9887 100.421C45.5824 100.848 46.2626 100.225 47.2159 99.3859L47.283 99.3281C47.9019 98.7728 48.493 98.2695 49.0784 98.0949L49.3144 98.0312L49.1617 98.221C48.4757 99.0909 48.8401 100.14 49.0969 100.9C49.201 101.191 49.2843 101.443 49.3086 101.645C49.3399 101.978 49.2878 102.209 49.1351 102.378C48.8806 102.668 48.4051 102.675 47.9783 102.681C46.7439 102.715 46.4952 103.076 46.4281 103.357C46.3412 103.384 46.2561 103.416 46.1736 103.453C45.5662 103.769 45.3406 104.511 45.653 105.096C45.6588 105.108 45.6645 105.13 45.6738 105.133C45.6769 104.98 45.7205 104.83 45.8001 104.7C45.8798 104.569 45.9927 104.461 46.1273 104.388C46.2347 104.339 46.3497 104.307 46.4674 104.296C46.3945 104.697 46.6421 105.083 47.0713 105.21C47.1823 105.234 47.2795 105.24 47.3836 105.234C47.3929 105.234 47.4056 105.24 47.4183 105.24H47.4264C47.3998 105.408 47.4264 105.598 47.5305 105.764C47.6028 105.89 47.7091 105.993 47.8371 106.061C47.8255 106.086 47.8221 106.101 47.8105 106.122C47.7608 106.278 47.7434 106.443 47.7592 106.606C47.775 106.769 47.8238 106.927 47.9025 107.071C47.9813 107.214 48.0884 107.341 48.2173 107.442C48.3463 107.543 48.4944 107.616 48.6527 107.659C48.5459 107.551 48.4702 107.416 48.4335 107.268C48.3969 107.121 48.4006 106.966 48.4445 106.821C48.4901 106.663 48.5844 106.524 48.714 106.423C48.9743 106.536 49.2971 106.516 49.5782 106.34C49.7637 106.223 49.9034 106.045 49.9738 105.838C50.0999 105.981 50.2654 106.126 50.4794 106.196C50.6969 106.285 50.9329 106.289 51.1422 106.236C51.1631 106.288 51.1723 106.34 51.2036 106.38C51.5009 106.975 52.2447 107.22 52.8555 106.929C52.8671 106.923 52.8822 106.914 52.8983 106.91C52.7417 106.905 52.5893 106.858 52.4571 106.774C52.3248 106.69 52.2175 106.572 52.1464 106.432C52.0464 106.235 52.0281 106.006 52.0955 105.795H52.1186C52.3095 105.682 52.6311 105.412 52.6311 104.933C52.6311 104.721 52.5733 104.468 52.4229 104.173C52.2548 103.859 52.0522 103.565 51.819 103.296C51.583 103.006 51.4326 102.818 51.4326 102.42C51.4326 102.255 51.4546 102.071 51.5067 101.835L51.7762 101.066L51.7797 101.06Z" fill="white"/>
<path d="M13.0654 95.02C12.5316 96.0362 12.3548 97.2022 12.5634 98.3309C12.5634 98.3309 12.9 97.8381 13.2806 97.5408C13.1638 97.8219 12.826 99.5144 13.8775 101.358C13.8775 101.358 14.1043 100.817 14.4236 100.427C14.3773 100.83 14.4085 101.534 14.7244 102.209C15.0668 102.962 15.2357 103.312 15.2172 103.597C15.3398 103.331 15.6221 103.106 16.2873 102.603C16.8021 102.214 17.1422 101.722 17.3203 101.341C17.4083 101.761 17.3932 102.23 17.3932 102.23C18.9353 101.255 19.5334 99.9066 19.6988 99.3397C19.8238 99.7597 19.8643 100.274 19.8643 100.274C20.6182 99.3297 21.0547 98.171 21.1113 96.9635C21.485 97.2759 21.6632 97.6576 21.6632 97.6576C22.0033 96.3759 21.9292 95.4411 21.8159 94.9136C22.2451 95.2352 22.4718 95.5614 22.4718 95.5614C22.8455 93.353 22.4255 91.7693 22.208 91.1862C22.5239 91.3343 23.1277 91.4754 23.5153 90.8681C24.0046 90.108 24.7092 89.8986 24.7092 89.8986C23.7409 89.6638 23.8392 89.525 23.1925 89.2681C22.8027 89.1027 22.4845 89.1293 22.1745 89.2739C22.1179 88.8843 21.9934 88.5076 21.8066 88.161C21.7765 88.4409 21.7023 88.7142 21.5868 88.9708C21.5926 88.5717 21.5313 87.7076 21.0014 87.1407C21.0321 87.2532 21.0321 87.3718 21.0014 87.4843C20.9031 87.8637 20.5202 88.0754 20.1118 87.9748C19.2754 87.7723 19.2847 86.5033 20.2159 86.184C19.1285 85.8901 18.0827 86.8469 17.694 87.2425C17.7704 86.8214 17.908 86.4327 17.9948 86.3228C17.9821 86.3228 17.1387 86.8469 16.5661 87.6705C16.5869 87.3466 16.6979 87.0551 16.7523 86.9174C16.7408 86.9174 16.2896 87.2147 15.9124 87.711C15.8081 87.5817 15.678 87.4754 15.5304 87.399C15.3829 87.3225 15.2211 87.2775 15.0552 87.2668C14.3611 87.2147 14.3842 87.3894 13.4055 87.1372C13.4055 87.1372 13.9423 87.6497 14.0071 88.5416C14.0534 89.1941 14.5612 89.378 14.9199 89.4243C14.4085 89.8963 13.1117 91.3273 12.5969 93.139C12.5969 93.139 12.9521 92.9585 13.4854 92.8787C13.1302 93.2894 12.6027 94.1049 12.2869 95.4122C12.2869 95.4122 12.6027 95.1554 13.0654 95.0235V95.02ZM22.2115 90.034C22.2578 89.7829 22.5401 89.614 22.8189 89.6754C23.0363 89.7274 23.2874 89.8952 23.2874 89.8952C23.2874 89.8952 22.6743 89.6754 22.6407 90.1416C22.6222 90.4238 22.392 90.3533 22.392 90.3533H22.3897C22.3897 90.3533 22.1687 90.3128 22.2115 90.034ZM18.7641 91.6004C18.9596 91.5333 18.9874 92.0261 19.3124 91.8734L20.6949 91.2568C20.6579 91.7288 19.9001 91.797 20.128 92.2528C19.9617 92.3538 19.764 92.39 19.5727 92.3546C19.3051 92.2108 19.0289 92.0837 18.7456 91.974C18.675 91.8306 18.6762 91.6397 18.7641 91.6004ZM16.2688 90.1751L17.1908 91.3493C17.4025 91.6374 17.6628 91.214 17.8097 91.3586C17.8652 91.428 17.7761 91.6061 17.6443 91.708C17.3412 91.6696 17.0358 91.6522 16.7303 91.6559C16.5426 91.5999 16.3839 91.4734 16.2873 91.3031C16.7072 91.0115 16.079 90.6101 16.2688 90.1751ZM16.7246 93.9731C17.3076 94.4474 17.5957 93.9754 17.7275 93.6376C17.5987 93.6076 17.4795 93.546 17.3805 93.4583C17.495 93.4236 17.5772 93.3565 17.5922 93.2651C17.635 93.1054 17.4996 92.94 17.2856 92.8903C17.2108 92.8702 17.1323 92.8682 17.0566 92.8845C16.9953 92.8174 16.9883 92.6115 16.9953 92.5351C17.0624 91.9254 17.5344 92.6022 17.9693 92.719C18.4112 92.8266 19.1678 92.4252 18.926 93.0013C18.9018 93.0684 18.7976 93.2466 18.7109 93.2766C18.6454 93.2318 18.5731 93.1978 18.4969 93.176C18.2852 93.1297 18.0827 93.2153 18.0434 93.3692C18.0156 93.4617 18.0619 93.5682 18.144 93.6353C18.0204 93.6707 17.8898 93.6738 17.7646 93.6445C17.7183 93.9939 17.7484 94.5584 18.4876 94.3965C19.3124 94.2206 19.9707 94.2692 20.2402 94.6313C20.0227 94.5029 19.2176 94.319 18.8127 95.6586C18.5616 96.5262 18.3407 97.0653 17.6327 97.5929C17.6292 97.5952 17.694 97.2227 17.5494 97.0376C17.3906 97.555 17.0355 97.9898 16.5603 98.2488C16.413 98.0304 16.311 97.7847 16.2603 97.5262C16.2096 97.2676 16.2113 97.0016 16.2653 96.7437C16.0536 96.8571 15.9414 97.1949 15.9379 97.1752C15.5665 96.4059 15.6464 95.8148 15.8303 94.9194C16.1218 93.5531 15.3155 93.3507 15.0888 93.3599C15.4705 93.1748 16.0756 93.4213 16.7199 93.9696L16.7257 93.9731H16.7246ZM14.6168 87.7908C14.6168 87.7908 14.9256 87.748 15.1165 87.8001C15.4046 87.8822 15.57 88.1587 15.4809 88.3947C15.3884 88.6585 15.1709 88.5995 15.1709 88.5995C15.1651 88.5995 14.9604 88.5509 15.0703 88.2906C15.2392 87.8799 14.6168 87.7874 14.6168 87.7874V87.7908ZM13.0654 72.4567C12.5319 73.4726 12.3551 74.6382 12.5634 75.7665C12.5634 75.7665 12.9 75.2725 13.2806 74.9798C13.1638 75.261 12.826 76.9523 13.8775 78.7975C13.8775 78.7975 14.1043 78.2549 14.4236 77.8662C14.3773 78.2676 14.4085 78.9756 14.7244 79.6477C15.0668 80.4009 15.2357 80.7468 15.2172 81.036C15.3398 80.7687 15.6221 80.5443 16.2873 80.0422C16.8021 79.6489 17.1422 79.1596 17.3203 78.7789C17.4083 79.1989 17.3932 79.6651 17.3932 79.6651C18.9353 78.691 19.5334 77.3421 19.6988 76.7776C19.8238 77.1975 19.8643 77.7123 19.8643 77.7123C20.6184 76.7681 21.0549 75.6097 21.1113 74.4026C21.485 74.7149 21.6632 75.0955 21.6632 75.0955C22.0033 73.8137 21.9292 72.879 21.8159 72.3515C22.2451 72.6765 22.4718 72.9993 22.4718 72.9993C22.8455 70.792 22.4255 69.2071 22.208 68.6218C22.5239 68.7687 23.1277 68.911 23.5153 68.3036C24.0046 67.5436 24.7092 67.3319 24.7092 67.3319C23.7409 67.0959 23.8392 66.9571 23.1925 66.7002C22.8027 66.5383 22.4845 66.5614 22.1745 66.7037C22.1172 66.3142 21.9928 65.9377 21.8066 65.5908C21.7765 65.8707 21.7023 66.144 21.5868 66.4006C21.5926 66.0015 21.5313 65.1396 21.0014 64.5705C21.0319 64.6826 21.0319 64.8008 21.0014 64.9129C20.9031 65.2935 20.5202 65.5052 20.1118 65.4069C19.2754 65.2044 19.2847 63.9354 20.2159 63.6172C19.1285 63.3222 18.0827 64.2789 17.694 64.6711C17.7704 64.2512 17.908 63.8613 17.9948 63.7549C17.9821 63.7549 17.1387 64.2755 16.5661 65.1038C16.5894 64.8443 16.6522 64.59 16.7523 64.3495C16.7408 64.3495 16.2896 64.6468 15.9124 65.1431C15.8083 65.0132 15.6783 64.9064 15.5308 64.8293C15.3832 64.7523 15.2213 64.7067 15.0552 64.6954C14.3611 64.6434 14.3842 64.818 13.4055 64.567C13.4055 64.567 13.9423 65.0783 14.0071 65.9703C14.0534 66.6239 14.5612 66.8078 14.9199 66.8564C14.4085 67.3249 13.1117 68.7594 12.5969 70.5688C12.5969 70.5688 12.9521 70.3871 13.4854 70.3073C13.1302 70.718 12.6027 71.5336 12.2869 72.842C12.2869 72.842 12.6027 72.5852 13.0654 72.4533V72.4567ZM22.2115 67.4695C22.2578 67.2185 22.5401 67.0496 22.8189 67.1109C23.0363 67.163 23.2874 67.3307 23.2874 67.3307C23.2874 67.3307 22.6743 67.1109 22.6407 67.5794C22.6222 67.8617 22.392 67.7912 22.392 67.7912H22.3897C22.3897 67.7912 22.1687 67.7518 22.2115 67.473V67.4695ZM18.7641 69.0359C18.9596 68.9677 18.9874 69.4617 19.3124 69.3089L20.6949 68.6923C20.6579 69.1643 19.9001 69.2314 20.128 69.6884C19.9617 69.7892 19.764 69.8255 19.5727 69.7902C19.3051 69.6464 19.0289 69.5192 18.7456 69.4096C18.675 69.265 18.6762 69.0753 18.7641 69.0359ZM16.2688 67.6072L17.1908 68.7849C17.4025 69.0729 17.6628 68.6495 17.8097 68.793C17.8652 68.8647 17.7761 69.0417 17.6443 69.1435C17.341 69.1067 17.0358 69.0893 16.7303 69.0915C16.5426 69.0354 16.3839 68.909 16.2873 68.7386C16.7072 68.4471 16.079 68.0457 16.2688 67.6107V67.6072ZM16.7246 71.4052C17.3076 71.8829 17.5957 71.4086 17.7275 71.0743C17.599 71.0424 17.48 70.9801 17.3805 70.8927C17.495 70.8591 17.5772 70.792 17.5922 70.7006C17.635 70.541 17.4996 70.3756 17.2856 70.3235C17.2109 70.303 17.1324 70.3006 17.0566 70.3166C16.9953 70.2495 16.9883 70.0435 16.9953 69.9672C17.0624 69.3575 17.5344 70.0343 17.9693 70.1546C18.4112 70.2622 19.1678 69.8631 18.926 70.4369C18.9018 70.504 18.7976 70.6821 18.7109 70.7122C18.6454 70.6673 18.5732 70.6333 18.4969 70.6116C18.2852 70.5653 18.0827 70.6509 18.0434 70.8082C18.0156 70.8996 18.0619 71.0061 18.144 71.0743C18.0204 71.1097 17.8898 71.1129 17.7646 71.0836C17.7183 71.4329 17.7484 71.9975 18.4876 71.8344C19.3124 71.6597 19.9707 71.7117 20.2402 72.0704C20.0227 71.9419 19.2176 71.758 18.8127 73.0965C18.5616 73.9641 18.3407 74.5032 17.6327 75.0307C17.6292 75.0342 17.694 74.6629 17.5494 74.4755C17.3906 74.9929 17.0355 75.4276 16.5603 75.6867C16.413 75.4689 16.311 75.2238 16.2604 74.9658C16.2097 74.7079 16.2114 74.4424 16.2653 74.1851C16.0536 74.2985 15.9414 74.6363 15.9379 74.6177C15.5665 73.8473 15.6464 73.2561 15.8303 72.3584C16.1218 70.9933 15.3155 70.7886 15.0888 70.7978C15.4705 70.6139 16.0756 70.8626 16.7199 71.4086L16.7257 71.4052H16.7246ZM14.6168 65.2229C14.6168 65.2229 14.9256 65.1824 15.1165 65.2322C15.4046 65.3143 15.57 65.5908 15.4809 65.8268C15.3884 66.0871 15.1709 66.0316 15.1709 66.0316C15.1651 66.0316 14.9604 65.9853 15.0703 65.7227C15.2392 65.312 14.6168 65.2195 14.6168 65.2195V65.2229Z" fill="white"/>
<path d="M1.19439 67.5538C1.2749 67.4217 1.38916 67.3135 1.5254 67.2403C1.66164 67.1671 1.81493 67.1316 1.96948 67.1373C2.15094 67.1462 2.32534 67.2104 2.46924 67.3213L2.45073 67.3606C2.33736 67.6058 2.35818 67.9182 2.51783 68.2305C2.75151 68.7153 3.23508 69.0831 3.77186 69.2139C4.25311 69.3134 4.60248 69.5332 4.78989 69.871C5.15083 70.5049 4.85699 71.3575 4.76212 71.6398L4.73667 71.7185C4.69805 71.8441 4.70711 71.9796 4.76212 72.0991C4.65966 72.1923 4.53687 72.2605 4.4035 72.298C4.25371 72.3383 4.09594 72.3382 3.9462 72.2977C3.79646 72.2573 3.66008 72.178 3.5509 72.0678C3.5509 72.084 3.56015 72.0933 3.56015 72.1048C3.67931 72.534 4.02289 72.8441 4.43011 72.9505C4.45556 72.9667 4.47638 72.9667 4.50414 72.9783C4.54695 72.9898 4.58744 72.9898 4.63024 72.9945H4.73089C4.9847 73.01 5.23608 72.9373 5.44235 72.7885C5.62851 72.923 5.85245 72.9951 6.08209 72.9945C6.61309 72.9945 7.03881 72.6567 7.11169 72.1881L7.22275 72.2576C8.52537 73.1414 8.97885 74.2844 9.42077 75.3996C9.74238 76.2001 10.064 76.9602 10.6829 77.5363C10.6736 77.4634 10.6598 77.3801 10.6598 77.3003C10.6598 76.6386 10.9467 76.1816 10.9467 76.1723L11.0415 76.0439L11.0936 76.2036C11.4522 77.453 12.5281 77.6682 12.8717 77.711C12.6172 76.7762 12.6576 76.3077 12.6576 76.3077C12.5651 76.3956 12.3592 76.6501 12.2007 76.9636C12.0239 76.3886 11.9331 75.7906 11.9311 75.189C11.9311 74.5204 12.0468 73.9558 12.1695 73.5058C12.0006 73.6192 11.768 73.7788 11.768 73.7788L11.5945 73.9038C11.5945 73.9038 11.7831 72.8314 11.9369 72.4669C8.91523 71.1886 6.59458 70.0387 6.59458 68.0593C6.59458 67.9367 6.60615 67.8164 6.62234 67.6949C6.66862 67.3884 6.77273 67.1096 6.88611 66.8458C7.01105 66.5485 7.11516 66.2697 7.11516 65.9816C7.1167 65.8211 7.08023 65.6626 7.00873 65.5189C6.93681 65.3687 6.82965 65.2381 6.69638 65.1383L6.68366 65.1232C6.67192 65.029 6.6502 64.9364 6.61887 64.8468C6.59458 64.7669 6.55409 64.6964 6.51476 64.6235C6.36408 64.3841 6.13713 64.2026 5.87054 64.1081C5.60395 64.0136 5.31331 64.0118 5.04555 64.1029C5.03398 64.1029 5.02473 64.1145 5.00622 64.1237C5.31857 64.1607 5.57308 64.3724 5.68761 64.6813C5.73388 64.7924 5.73966 64.9081 5.72115 65.0307C5.61953 65.0565 5.52668 65.1091 5.45223 65.183C5.37778 65.2568 5.32444 65.3492 5.29775 65.4506C5.20847 65.2998 5.07298 65.1818 4.91136 65.114C4.74925 65.0411 4.56814 65.0216 4.39424 65.0585C4.30345 64.9089 4.17553 64.7854 4.02289 64.6998C3.95022 64.6552 3.87306 64.6184 3.79268 64.5899C3.71568 64.565 3.63674 64.5464 3.55668 64.5344H3.54743C3.49306 64.5251 3.42827 64.5251 3.36349 64.5251C3.1539 64.5255 2.94779 64.5787 2.76419 64.6798C2.5806 64.7809 2.42544 64.9267 2.31307 65.1036C2.31307 65.1163 2.30612 65.1267 2.30034 65.1348C2.43463 65.0569 2.58737 65.0164 2.74263 65.0176C2.89789 65.0189 3.04997 65.0617 3.18302 65.1417C3.33481 65.2376 3.45352 65.3777 3.52313 65.5432C3.45293 65.6136 3.39331 65.6939 3.34614 65.7815C3.27209 65.9571 3.25786 66.1523 3.30565 66.3368C3.17622 66.3555 3.05144 66.3982 2.93777 66.4629C2.79257 66.3996 2.63677 66.3643 2.4785 66.3588C1.78901 66.3333 1.21521 66.8481 1.19092 67.5168C1.19092 67.526 1.1967 67.5387 1.1967 67.5538H1.19439Z" fill="white"/>
<path d="M52.9546 76.6937C52.9118 76.3779 52.7059 76.0991 52.434 75.9151C53.2369 75.3136 53.3132 74.3765 53.3132 74.3673C52.8042 74.756 52.382 74.9226 52.0014 74.9526L52.124 74.8393C52.8597 74.1521 53.1073 73.2602 53.1941 72.8402C52.4953 73.7056 51.7168 73.687 50.7416 73.6188C49.8369 73.5644 48.7009 73.4962 47.2594 74.2134C46.8489 74.4149 46.3967 74.5167 45.9395 74.5107C45.54 74.5168 45.1469 74.4097 44.8057 74.2018C48.7194 73.539 50.8329 71.7343 51.1372 70.3333C51.2725 69.6924 51.0331 69.1441 50.4778 68.7797C49.6101 68.2093 48.0692 68.31 46.1477 69.0608C44.6162 69.6717 43.0451 70.178 41.4451 70.5763C40.3333 70.7267 39.416 70.6642 38.5888 69.9053C38.5888 70.0487 38.5067 70.4837 38.9717 70.9094C38.8584 70.9002 37.6205 70.7567 36.8015 69.4321C36.8015 69.4321 36.4776 70.1841 36.9634 70.9314C36.1212 70.6422 35.7487 70.1066 35.4132 69.6346C35.0951 69.1776 34.7978 68.7889 34.1777 68.6628C34.3257 68.8184 34.4092 69.0243 34.4114 69.2389C34.4166 69.3589 34.3974 69.4787 34.3551 69.591C34.3128 69.7034 34.2482 69.806 34.1652 69.8928C34.0822 69.9796 33.9825 70.0487 33.8722 70.0959C33.7618 70.1432 33.643 70.1677 33.523 70.1679C33.4582 70.1737 33.3934 70.1679 33.3298 70.1621C33.1933 70.1427 33.0602 70.1045 32.9341 70.0487C32.9046 70.0409 32.8764 70.0284 32.8508 70.0117C32.8508 70.0059 32.8416 70.0059 32.83 69.9967C32.4679 69.7942 32.1648 69.4021 32.1428 68.6941V68.6131C32.1336 67.661 32.9549 66.8084 34.2182 66.4741H34.239C34.7388 66.3341 35.5058 66.1929 36.5932 66.4197C36.6974 66.4347 36.8015 66.466 36.9056 66.481L37.9271 66.7563C38.7172 66.9923 39.4565 67.2075 40.1945 67.0143C40.1887 67.0143 40.1853 67.0051 40.1853 67.0051C40.0603 66.9831 39.3859 66.7563 39.2482 66.0611H39.2598C41.2588 66.6395 42.0062 65.8401 42.2491 65.4572C41.9113 65.5948 41.1755 65.8008 40.5173 65.4664L40.3819 65.3982L40.5173 65.3253C41.0622 65.0222 41.3907 64.6231 41.4948 64.1384C41.5176 64.0279 41.53 63.9156 41.5318 63.8029C41.5318 63.2811 41.3005 62.8022 41.1362 62.5084V62.5824C41.1362 62.9098 41.0622 63.3876 40.7197 63.8318C40.1251 64.6138 38.9602 65.0315 37.2376 65.0835C34.4727 65.1564 32.8543 65.6596 31.9739 66.7101C31.7247 66.9562 31.5265 67.2492 31.3909 67.5723C31.2553 67.8953 31.1849 68.2419 31.1838 68.5923C31.1838 68.6166 31.1838 68.6501 31.1931 68.6906C31.2081 69.1383 31.3377 69.564 31.5794 69.9527L31.6257 70.0453L31.5366 70.0672C31.2671 70.1586 30.7037 70.1887 29.8326 69.6716C30.182 70.2442 31.2266 71.3699 34.3258 71.8257C38.5125 72.7338 43.0265 71.2866 46.4959 69.9319C46.6712 69.8628 46.8482 69.7984 47.0269 69.7387C47.0385 69.7387 47.0489 69.7387 47.057 69.7329C47.7048 69.4969 49.5002 68.9694 49.9942 69.6959C50.546 70.4826 49.4239 71.3629 48.9241 71.6938C47.2201 72.8958 43.6338 74.0943 37.823 73.215C36.3572 73.0299 35.1506 72.9629 33.464 72.8796C29.2472 72.6748 23.9778 73.6778 22.3998 73.9936C22.3517 74.7953 22.208 75.5883 21.9718 76.3559L21.9082 76.5526L21.8249 76.3617C21.8249 76.3617 21.6687 76.0216 21.4385 75.6699C21.295 76.6012 20.8566 77.9003 19.6708 79.1636L19.5482 79.2955C19.5482 79.2955 19.5112 78.6638 19.4926 78.4128C18.8032 79.388 17.9818 80.1874 17.0193 80.782L16.8839 80.8746L16.9615 80.295C16.6951 80.6328 16.3837 80.9325 16.036 81.1858C15.6588 81.4773 15.3245 81.7781 15.0364 82.3299L14.9104 82.5809L14.8895 82.2929C14.8282 81.4414 14.5517 80.8699 14.325 80.3899C14.2064 80.1374 14.1081 79.8759 14.0311 79.6078C13.9733 79.7767 13.8437 80.1111 13.8437 80.1111L13.7547 79.9664C13.5649 79.633 13.3979 79.2871 13.2549 78.9311C13.1508 78.9831 12.9668 79.0907 12.9576 79.0988C10.4877 79.9572 8.63674 80.0798 7.74712 79.4424C7.30058 79.1243 7.08193 78.6176 7.10044 77.9443C7.13168 76.5676 6.74876 75.8284 5.97829 75.789C5.88078 75.6367 5.75151 75.5073 5.59932 75.4096C5.44714 75.3119 5.27564 75.2482 5.09656 75.2229C4.91749 75.1977 4.73507 75.2114 4.56179 75.2632C4.38851 75.315 4.22847 75.4036 4.09262 75.523C4.088 75.523 4.08105 75.538 4.07296 75.553C4.22181 75.5146 4.37834 75.5174 4.52572 75.5612C4.67309 75.605 4.80573 75.6882 4.90936 75.8018C4.96489 75.8561 5.01348 75.9244 5.05397 76.0065C4.90465 76.1183 4.79224 76.2722 4.73121 76.4485C4.27772 76.3131 3.77217 76.4137 3.45288 76.6995C3.31522 76.6694 3.19259 76.6474 3.04567 76.6694C2.88522 76.6818 2.7288 76.7258 2.58538 76.7988C2.44196 76.8718 2.31435 76.9724 2.20989 77.0948C2.10542 77.2172 2.02615 77.359 1.97661 77.5122C1.92707 77.6653 1.90825 77.8267 1.92121 77.9871C1.93278 77.9963 1.93278 78.0079 1.93278 78.0241C1.99404 77.8815 2.09338 77.7586 2.21991 77.6688C2.34644 77.579 2.49525 77.5258 2.65003 77.5151C2.79994 77.4968 2.952 77.52 3.08963 77.5822C3.06074 77.6693 3.044 77.76 3.03989 77.8517C3.0341 78.149 3.18334 78.4371 3.4043 78.658C3.26853 78.7206 3.14886 78.8134 3.05442 78.9293C2.95999 79.0452 2.89329 79.1811 2.85942 79.3267C2.84296 79.4093 2.83674 79.4936 2.84091 79.5777C2.83165 79.5777 2.81893 79.587 2.80389 79.587C2.16299 79.8288 1.8437 80.531 2.08317 81.1557C2.0879 81.1677 2.09544 81.1784 2.10515 81.1869C2.12342 81.0342 2.18417 80.8898 2.2805 80.7699C2.37682 80.6501 2.50486 80.5597 2.65003 80.509C2.7915 80.4581 2.94371 80.4446 3.09195 80.4697C3.2506 80.7043 3.49255 80.8697 3.7687 80.9324C4.07874 81.0018 4.37952 80.9567 4.58429 80.7971C4.8145 80.6235 5.04471 80.5495 5.2622 80.5923C5.51671 80.6444 5.75502 80.8375 5.95169 81.1834C6.39592 81.9227 7.0183 82.3079 8.02014 82.471C8.02014 82.5138 8.02939 82.5694 8.05484 82.6145C8.12425 82.8354 8.26886 82.9951 8.44586 83.1027C8.39572 83.1918 8.32708 83.2691 8.24457 83.3294C8.12023 83.4241 7.97286 83.4839 7.81769 83.5026C7.66253 83.5213 7.50517 83.4983 7.36189 83.4358C7.36999 83.4578 7.37346 83.4613 7.37924 83.4729C7.58615 83.7273 7.88406 83.8911 8.20975 83.9296C8.53545 83.968 8.86331 83.8781 9.12378 83.6788C9.20707 83.6117 9.27417 83.54 9.33548 83.4636C9.48845 83.4907 9.64582 83.478 9.79244 83.4266C10.1684 83.2993 10.4391 82.9858 10.4784 82.6515C10.6925 82.6665 12.6695 82.8539 12.6788 82.8539C13.7975 83.068 13.8657 83.0969 15.033 83.6175C16.0013 84.0733 16.722 85.0057 17.0066 85.4198C17.0066 85.3458 17.01 85.288 17.01 85.2081C17.01 84.8738 16.9753 84.5603 16.9025 84.2665L16.8724 84.1288L17.0008 84.1693C17.7065 84.4018 19.4013 84.7697 20.3383 83.5585C20.2474 83.5519 20.1592 83.5244 20.0806 83.4783C20.0019 83.4321 19.935 83.3686 19.8848 83.2924C19.8191 83.1801 19.7844 83.0523 19.7842 82.9222C19.7842 82.7279 19.8605 82.4953 20.0502 82.2628C20.4979 81.7168 20.6055 81.0978 20.6055 80.6467C20.6055 80.2418 20.5246 79.9479 20.5165 79.9086C21.3193 80.5426 20.9364 82.1251 20.9364 82.1251C22.46 82.1402 23.7904 81.674 26.9497 79.1671C28.8319 77.6747 30.5973 76.6995 32.1972 76.2668L32.3534 76.2206C32.1394 76.5861 31.495 78.2531 34.128 78.6974C34.4473 78.7714 34.7758 78.82 35.1425 78.8455L36.0865 78.9646C36.5123 79.0039 36.8558 79.0444 37.0097 79.1057L37.6714 79.3024L37.7362 79.3232C37.9838 79.4759 38.0879 79.7027 38.0786 80.0682V80.074L38.0451 80.0833C35.9743 81.0273 33.9961 80.5773 32.8439 79.838C31.8756 79.2156 31.1086 79.1555 30.6551 79.6634H30.6528C30.4919 79.6567 30.3313 79.6819 30.1802 79.7374C30.029 79.793 29.8904 79.8779 29.7721 79.9872C29.6539 80.0966 29.5584 80.2281 29.4911 80.3745C29.4239 80.5208 29.3862 80.6789 29.3803 80.8399V80.8711C29.4616 80.7398 29.576 80.6322 29.712 80.5591C29.8481 80.486 30.001 80.45 30.1554 80.4546C30.2468 80.4538 30.3371 80.4744 30.4191 80.5148C30.4036 80.6392 30.4133 80.7654 30.4474 80.8861C30.4816 81.0067 30.5396 81.1192 30.6181 81.217C30.6308 81.2413 30.6459 81.2482 30.6551 81.2633H30.6621C30.5598 81.3951 30.5019 81.5558 30.4966 81.7225C30.4561 81.7445 30.4133 81.7596 30.3694 81.7839C30.2281 81.8579 30.1031 81.9596 30.0019 82.0829C29.9006 82.2062 29.8252 82.3486 29.7801 82.5016C29.735 82.6547 29.7211 82.8152 29.7393 82.9737C29.7574 83.1322 29.8073 83.2854 29.8858 83.4243C29.8927 83.4301 29.902 83.4451 29.9078 83.4544C29.9078 83.1536 30.064 82.8597 30.3555 82.7012C30.4485 82.6542 30.5492 82.624 30.6528 82.6122C30.7653 82.7617 30.9213 82.8728 31.0993 82.9303C31.1526 82.9523 31.2035 82.9615 31.2474 82.9731V83.0506C31.2474 83.2311 31.3018 83.4 31.4129 83.5191C31.3428 83.66 31.3012 83.8133 31.2906 83.9702C31.28 84.1271 31.3004 84.2846 31.3509 84.4336C31.4013 84.5826 31.4806 84.7202 31.5844 84.8384C31.6881 84.9566 31.8142 85.0532 31.9554 85.1226C31.9647 85.1341 31.9855 85.1376 31.9948 85.1376C31.9071 85.0138 31.8551 84.8683 31.8443 84.717C31.8335 84.5656 31.8643 84.4142 31.9334 84.2792C31.9933 84.1707 32.0772 84.0773 32.1787 84.0062C32.7733 84.3035 33.5912 83.7864 33.7173 83.6788C35.6608 82.0014 36.8466 82.5717 37.705 82.9916C38.0486 83.1605 38.3459 83.3074 38.6212 83.2681H38.6559C38.7068 83.3606 38.76 83.4578 38.7751 83.5839C38.7914 83.7369 38.766 83.8914 38.7017 84.0311C38.6373 84.1708 38.5364 84.2905 38.4095 84.3775H38.4558C39.1337 84.285 39.6115 83.6753 39.5259 83.0124C39.5201 82.9824 39.4981 82.9523 39.4981 82.9211C39.6124 82.8281 39.7031 82.7094 39.7628 82.5747C39.8225 82.44 39.8496 82.2931 39.8417 82.146C40.1911 82.0384 40.7174 81.8336 41.2692 81.453C41.4659 81.7225 41.5307 82.146 41.3155 82.7776C41.3155 82.7776 42.1855 82.1737 42.0814 80.8584C42.4585 81.2112 42.4747 81.8336 42.4469 82.0997C42.6558 81.9063 42.8228 81.6721 42.9376 81.4117C43.0524 81.1512 43.1126 80.87 43.1144 80.5854C43.1144 80.4882 43.1052 80.3956 43.0867 80.2881L43.0751 80.1909C43.0659 80.1133 43.0609 80.0353 43.06 79.9572C43.06 79.7062 43.1214 79.5014 43.259 79.3475C43.458 79.1208 43.7461 79.0815 43.9821 79.0745C43.3805 78.6118 42.3428 78.6118 41.6741 78.6395H41.4474C40.7487 78.643 40.3715 78.3573 40.2489 78.0935C40.2254 78.0275 40.211 77.9586 40.2061 77.8887C40.2061 77.7754 40.2732 77.6898 40.3322 77.5972C40.3322 77.5972 39.6358 77.1194 38.9278 76.703L40.0927 77.0766C41.1258 77.3855 42.0732 77.6828 42.986 77.8367C45.5797 78.2508 46.2599 77.6435 47.2131 76.7955L47.2802 76.7365C47.8992 76.1812 48.4903 75.6791 49.0757 75.516L49.3117 75.4397L49.159 75.6386C48.473 76.5098 48.8374 77.5452 49.0942 78.311C49.1983 78.6025 49.2816 78.8512 49.3059 79.056C49.3371 79.3845 49.2851 79.6205 49.1324 79.786C48.8779 80.074 48.4024 80.0833 47.9755 80.0833C46.7411 80.1111 46.4924 80.4766 46.4253 80.7693C46.3371 80.7924 46.2517 80.8254 46.1708 80.8676C45.5635 81.18 45.3379 81.9157 45.6502 82.5046C45.656 82.5138 45.6618 82.5266 45.6711 82.5289C45.6739 82.3785 45.7176 82.2318 45.7975 82.1044C45.8774 81.9771 45.9905 81.8739 46.1245 81.8058C46.2304 81.752 46.3462 81.7206 46.4647 81.7133C46.3918 82.1066 46.6393 82.4953 47.0685 82.6087C47.1796 82.6457 47.2768 82.648 47.3809 82.6457H47.4237C47.3908 82.8254 47.4281 83.0109 47.5278 83.164C47.5954 83.2949 47.7027 83.401 47.8344 83.4671C47.8228 83.4879 47.8193 83.5041 47.8078 83.5342C47.5995 84.1716 47.9639 84.8588 48.6129 85.0635H48.65C48.5429 84.9547 48.4672 84.8191 48.4305 84.671C48.3939 84.5228 48.3978 84.3675 48.4417 84.2214C48.4906 84.0674 48.5844 83.9315 48.7113 83.8315C48.8507 83.8897 49.0022 83.9132 49.1528 83.8999C49.3033 83.8866 49.4484 83.8369 49.5754 83.7551C49.7602 83.63 49.8991 83.4481 49.9711 83.2369C50.0972 83.4023 50.2626 83.5261 50.4766 83.6024C50.6878 83.6845 50.9189 83.7006 51.1395 83.6487C51.1603 83.6846 51.1696 83.7366 51.2008 83.7794C51.4981 84.3833 52.242 84.6251 52.8528 84.3347C52.8644 84.3255 52.8794 84.3255 52.8956 84.3127C52.7396 84.3113 52.587 84.267 52.4544 84.1848C52.3218 84.1026 52.2143 83.9856 52.1437 83.8465C52.0441 83.648 52.0259 83.4185 52.0928 83.2068L52.1159 83.1975C52.2713 83.1137 52.4011 82.9893 52.4914 82.8375C52.5816 82.6857 52.629 82.5123 52.6284 82.3357C52.6284 82.1251 52.5705 81.8822 52.4201 81.5976C52.2518 81.2822 52.0493 80.9862 51.8163 80.7149C51.5803 80.4257 51.4299 80.2337 51.4299 79.8253C51.4299 79.6749 51.4519 79.4829 51.5039 79.2469L51.7735 78.4868L52.0245 77.8309C52.2919 77.7979 52.5388 77.6708 52.7209 77.4723C52.773 77.4815 52.8343 77.4931 52.8979 77.5116C53.0354 77.5751 53.1534 77.6743 53.2396 77.7988C53.3259 77.9233 53.3772 78.0686 53.3884 78.2196C53.4 78.2161 53.4 78.2046 53.4104 78.1895C53.6707 77.6458 53.459 77.0003 52.95 76.681L52.9534 76.6926L52.9546 76.6937ZM49.1844 11.7607C50.509 11.7607 51.5756 10.7426 51.5756 9.44116C51.5756 8.13854 50.509 7.08118 49.1844 7.08118C47.861 7.08118 46.7816 8.14085 46.7816 9.44116C46.7816 10.7403 47.854 11.7607 49.1844 11.7607ZM49.1844 7.43633C50.31 7.43633 51.2228 8.32827 51.2228 9.44116C51.2228 10.5541 50.3124 11.402 49.1844 11.402C48.0565 11.402 47.1495 10.5448 47.1495 9.44116C47.1495 8.33752 48.0588 7.43633 49.1844 7.43633Z" fill="white"/>
<path d="M48.8225 9.64585H49.3223C49.4669 9.64585 49.556 9.67014 49.6138 9.7222C49.6636 9.77079 49.6948 9.87259 49.6948 10.0288V10.2486C49.6971 10.3261 49.7087 10.399 49.7179 10.4707L49.7492 10.5979H50.3218V10.532C50.2582 10.51 50.2212 10.4614 50.2212 10.3966C50.202 10.3227 50.1946 10.2462 50.1992 10.1699V10.0079C50.1992 9.83904 50.1761 9.71295 50.1228 9.63081C50.0739 9.54184 49.9947 9.47332 49.8996 9.43762C50.0214 9.39534 50.1238 9.31024 50.1876 9.19815C50.2391 9.08951 50.2671 8.97126 50.2698 8.85109C50.2717 8.76303 50.2551 8.67555 50.2212 8.59427C50.1954 8.5167 50.155 8.44482 50.102 8.38256C50.0378 8.31032 49.9578 8.25374 49.8683 8.21713C49.745 8.17493 49.6158 8.15229 49.4854 8.15004H48.3054V10.5956H48.8202V9.64238L48.8225 9.64585ZM48.8225 8.58501H49.3894C49.4935 8.58501 49.5629 8.59658 49.6138 8.6255C49.7179 8.67756 49.77 8.7759 49.77 8.91934C49.77 9.06279 49.7087 9.15187 49.6138 9.19815C49.5352 9.22941 49.4509 9.24399 49.3663 9.24095H48.826V8.58501H48.8225ZM27.7562 7.23959C29.3388 7.23959 30.6171 5.6119 30.6171 3.61633C30.6171 1.62191 29.3388 0 27.7562 0C26.1737 0 24.893 1.62422 24.893 3.61401C24.893 5.6038 26.1806 7.23612 27.7562 7.23612V7.23959ZM47.8276 38.6933L47.9676 38.7199L48.4674 38.7777C49.8093 38.7777 50.8945 37.7215 50.8945 36.4374C50.8945 35.3639 50.1471 34.4384 49.084 34.1688L49.062 34.1631C42.1787 32.5226 35.0155 31.692 27.7597 31.692C20.5062 31.692 13.3303 32.5296 6.43658 34.1688C5.37227 34.4349 4.62842 35.3639 4.62842 36.4363C4.62842 37.7239 5.71586 38.7789 7.05318 38.7789L7.546 38.7211L7.69986 38.6933C14.1887 37.1512 20.9285 36.3726 27.7632 36.3726C34.5979 36.3726 41.3412 37.1512 47.8334 38.6933H47.8276Z" fill="white"/>
</g>
<path d="M91.168 56V20.24H115.216V26.72H98.608V34.832H114.256V41.312H98.608V49.52H115.216V56H91.168ZM118.906 56V29.792H125.626V34.976L125.242 33.824C125.85 32.256 126.826 31.104 128.17 30.368C129.546 29.6 131.146 29.216 132.97 29.216C134.954 29.216 136.682 29.632 138.154 30.464C139.658 31.296 140.826 32.464 141.658 33.968C142.49 35.44 142.906 37.168 142.906 39.152V56H135.706V40.688C135.706 39.664 135.498 38.784 135.082 38.048C134.698 37.312 134.138 36.736 133.402 36.32C132.698 35.904 131.866 35.696 130.906 35.696C129.978 35.696 129.146 35.904 128.41 36.32C127.674 36.736 127.098 37.312 126.682 38.048C126.298 38.784 126.106 39.664 126.106 40.688V56H118.906ZM160.504 66.56C158.488 66.56 156.616 66.224 154.888 65.552C153.16 64.88 151.672 63.936 150.424 62.72C149.208 61.536 148.328 60.128 147.784 58.496L154.456 56.144C154.808 57.36 155.528 58.32 156.616 59.024C157.704 59.728 159 60.08 160.504 60.08C161.688 60.08 162.712 59.856 163.576 59.408C164.44 58.992 165.096 58.368 165.544 57.536C166.024 56.704 166.264 55.728 166.264 54.608V48.608L167.656 50.336C166.76 51.808 165.608 52.912 164.2 53.648C162.792 54.352 161.144 54.704 159.256 54.704C156.824 54.704 154.648 54.16 152.728 53.072C150.808 51.952 149.304 50.432 148.216 48.512C147.128 46.56 146.584 44.352 146.584 41.888C146.584 39.424 147.128 37.248 148.216 35.36C149.304 33.44 150.792 31.936 152.68 30.848C154.568 29.76 156.712 29.216 159.112 29.216C161 29.216 162.648 29.6 164.056 30.368C165.464 31.104 166.664 32.24 167.656 33.776L166.744 35.504V29.792H173.464V54.608C173.464 56.912 172.904 58.96 171.784 60.752C170.664 62.576 169.128 64 167.176 65.024C165.256 66.048 163.032 66.56 160.504 66.56ZM160.264 48.176C161.48 48.176 162.536 47.92 163.432 47.408C164.328 46.896 165.016 46.176 165.496 45.248C166.008 44.32 166.264 43.232 166.264 41.984C166.264 40.736 166.008 39.648 165.496 38.72C164.984 37.76 164.28 37.024 163.384 36.512C162.488 35.968 161.448 35.696 160.264 35.696C159.048 35.696 157.96 35.968 157 36.512C156.072 37.024 155.336 37.76 154.792 38.72C154.28 39.648 154.024 40.736 154.024 41.984C154.024 43.2 154.28 44.272 154.792 45.2C155.336 46.128 156.072 46.864 157 47.408C157.96 47.92 159.048 48.176 160.264 48.176ZM178.765 56V19.664H185.965V56H178.765ZM199.346 56.576C197.458 56.576 195.826 56.272 194.45 55.664C193.074 55.056 192.018 54.192 191.282 53.072C190.546 51.92 190.178 50.56 190.178 48.992C190.178 47.52 190.514 46.224 191.186 45.104C191.858 43.952 192.882 42.992 194.258 42.224C195.666 41.456 197.41 40.912 199.49 40.592L207.506 39.296V44.576L200.786 45.776C199.762 45.968 198.978 46.304 198.434 46.784C197.89 47.232 197.618 47.888 197.618 48.752C197.618 49.552 197.922 50.176 198.53 50.624C199.138 51.072 199.89 51.296 200.786 51.296C201.97 51.296 203.01 51.04 203.906 50.528C204.802 50.016 205.49 49.328 205.97 48.464C206.482 47.568 206.738 46.592 206.738 45.536V38.72C206.738 37.728 206.338 36.896 205.538 36.224C204.77 35.552 203.714 35.216 202.37 35.216C201.09 35.216 199.954 35.568 198.962 36.272C198.002 36.976 197.298 37.904 196.85 39.056L191.09 36.32C191.602 34.848 192.418 33.584 193.538 32.528C194.658 31.472 196.002 30.656 197.57 30.08C199.138 29.504 200.85 29.216 202.706 29.216C204.914 29.216 206.866 29.616 208.562 30.416C210.258 31.216 211.57 32.336 212.498 33.776C213.458 35.184 213.938 36.832 213.938 38.72V56H207.218V51.776L208.85 51.488C208.082 52.64 207.234 53.6 206.306 54.368C205.378 55.104 204.338 55.648 203.186 56C202.034 56.384 200.754 56.576 199.346 56.576ZM219.218 56V29.792H225.938V34.976L225.554 33.824C226.162 32.256 227.138 31.104 228.482 30.368C229.858 29.6 231.458 29.216 233.282 29.216C235.266 29.216 236.994 29.632 238.466 30.464C239.97 31.296 241.138 32.464 241.97 33.968C242.802 35.44 243.218 37.168 243.218 39.152V56H236.018V40.688C236.018 39.664 235.81 38.784 235.394 38.048C235.01 37.312 234.45 36.736 233.714 36.32C233.01 35.904 232.178 35.696 231.218 35.696C230.29 35.696 229.458 35.904 228.722 36.32C227.986 36.736 227.41 37.312 226.994 38.048C226.61 38.784 226.418 39.664 226.418 40.688V56H219.218ZM260.289 56.576C257.729 56.576 255.441 55.968 253.425 54.752C251.409 53.536 249.809 51.888 248.625 49.808C247.473 47.728 246.896 45.424 246.896 42.896C246.896 40.336 247.488 38.032 248.673 35.984C249.857 33.904 251.457 32.256 253.473 31.04C255.489 29.824 257.745 29.216 260.241 29.216C262.161 29.216 263.857 29.584 265.329 30.32C266.833 31.024 268.017 32.032 268.881 33.344L267.777 34.784V19.664H274.977V56H268.257V51.2L268.929 52.688C268.033 53.968 266.817 54.944 265.281 55.616C263.745 56.256 262.081 56.576 260.289 56.576ZM261.153 50.096C262.465 50.096 263.617 49.792 264.609 49.184C265.601 48.576 266.369 47.728 266.913 46.64C267.489 45.552 267.777 44.304 267.777 42.896C267.777 41.488 267.489 40.24 266.913 39.152C266.369 38.064 265.601 37.216 264.609 36.608C263.617 36 262.465 35.696 261.153 35.696C259.841 35.696 258.657 36.016 257.601 36.656C256.577 37.264 255.777 38.112 255.201 39.2C254.625 40.256 254.337 41.488 254.337 42.896C254.337 44.304 254.625 45.552 255.201 46.64C255.777 47.728 256.577 48.576 257.601 49.184C258.657 49.792 259.841 50.096 261.153 50.096ZM301.69 56.576C299.386 56.576 297.37 56.176 295.642 55.376C293.946 54.544 292.618 53.376 291.658 51.872C290.698 50.368 290.218 48.624 290.218 46.64C290.218 44.976 290.506 43.536 291.082 42.32C291.69 41.104 292.426 40.08 293.29 39.248C294.154 38.416 295.002 37.744 295.834 37.232C296.698 36.688 297.402 36.272 297.946 35.984L301.306 34.256C302.362 33.712 303.306 33.184 304.138 32.672C304.97 32.16 305.626 31.6 306.106 30.992C306.618 30.352 306.874 29.616 306.874 28.784C306.874 27.824 306.554 27.008 305.914 26.336C305.306 25.664 304.522 25.328 303.562 25.328C302.634 25.328 301.834 25.664 301.162 26.336C300.522 26.976 300.202 27.808 300.202 28.832C300.202 29.6 300.378 30.352 300.73 31.088C301.082 31.824 301.482 32.496 301.93 33.104C302.41 33.712 302.842 34.24 303.226 34.688L321.946 56H313.594L298.186 38.72C297.45 37.888 296.714 37.008 295.978 36.08C295.274 35.152 294.682 34.128 294.202 33.008C293.754 31.856 293.53 30.576 293.53 29.168C293.53 27.216 293.994 25.536 294.922 24.128C295.85 22.688 297.066 21.584 298.57 20.816C300.074 20.048 301.706 19.664 303.466 19.664C305.322 19.664 306.986 20.064 308.458 20.864C309.93 21.664 311.098 22.752 311.962 24.128C312.826 25.504 313.258 27.072 313.258 28.832C313.258 30.592 312.842 32.096 312.01 33.344C311.21 34.56 310.234 35.584 309.082 36.416C307.93 37.248 306.842 37.952 305.818 38.528L302.314 40.544C301.674 40.896 300.986 41.344 300.25 41.888C299.514 42.432 298.89 43.088 298.378 43.856C297.898 44.592 297.658 45.488 297.658 46.544C297.658 47.792 298.042 48.784 298.81 49.52C299.578 50.224 300.634 50.576 301.978 50.576C302.81 50.576 303.546 50.448 304.186 50.192C304.826 49.904 305.386 49.568 305.866 49.184C306.346 48.768 306.746 48.336 307.066 47.888C307.418 47.44 307.722 47.04 307.978 46.688L313.594 38.576H320.89L314.41 48.752C313.93 49.52 313.338 50.368 312.634 51.296C311.962 52.192 311.13 53.04 310.138 53.84C309.146 54.64 307.962 55.296 306.586 55.808C305.21 56.32 303.578 56.576 301.69 56.576ZM343.794 56L334.434 20.24H342.498L349.554 50.192H347.394L354.834 20.24H362.514L369.954 50.192H367.794L374.85 20.24H382.914L373.554 56H364.914L357.426 27.2H359.922L352.434 56H343.794ZM392.283 56.576C390.395 56.576 388.763 56.272 387.387 55.664C386.011 55.056 384.955 54.192 384.219 53.072C383.483 51.92 383.115 50.56 383.115 48.992C383.115 47.52 383.451 46.224 384.123 45.104C384.795 43.952 385.819 42.992 387.195 42.224C388.603 41.456 390.347 40.912 392.427 40.592L400.443 39.296V44.576L393.723 45.776C392.699 45.968 391.915 46.304 391.371 46.784C390.827 47.232 390.555 47.888 390.555 48.752C390.555 49.552 390.859 50.176 391.467 50.624C392.075 51.072 392.827 51.296 393.723 51.296C394.907 51.296 395.947 51.04 396.843 50.528C397.739 50.016 398.427 49.328 398.907 48.464C399.419 47.568 399.675 46.592 399.675 45.536V38.72C399.675 37.728 399.275 36.896 398.475 36.224C397.707 35.552 396.651 35.216 395.307 35.216C394.027 35.216 392.891 35.568 391.899 36.272C390.939 36.976 390.235 37.904 389.787 39.056L384.027 36.32C384.539 34.848 385.355 33.584 386.475 32.528C387.595 31.472 388.939 30.656 390.507 30.08C392.075 29.504 393.787 29.216 395.643 29.216C397.851 29.216 399.803 29.616 401.499 30.416C403.195 31.216 404.507 32.336 405.435 33.776C406.395 35.184 406.875 36.832 406.875 38.72V56H400.155V51.776L401.787 51.488C401.019 52.64 400.171 53.6 399.243 54.368C398.315 55.104 397.275 55.648 396.123 56C394.971 56.384 393.691 56.576 392.283 56.576ZM412.156 56V19.664H419.356V56H412.156ZM437.248 56.576C434.464 56.576 432.048 55.968 430 54.752C427.952 53.504 426.368 51.84 425.248 49.76C424.128 47.68 423.568 45.376 423.568 42.848C423.568 40.224 424.144 37.888 425.296 35.84C426.48 33.792 428.064 32.176 430.048 30.992C432.032 29.808 434.272 29.216 436.768 29.216C438.848 29.216 440.688 29.552 442.288 30.224C443.888 30.864 445.232 31.776 446.32 32.96C447.44 34.144 448.288 35.52 448.864 37.088C449.44 38.624 449.728 40.304 449.728 42.128C449.728 42.64 449.696 43.152 449.632 43.664C449.6 44.144 449.52 44.56 449.392 44.912H429.76V39.632H445.312L441.904 42.128C442.224 40.752 442.208 39.536 441.856 38.48C441.504 37.392 440.88 36.544 439.984 35.936C439.12 35.296 438.048 34.976 436.768 34.976C435.52 34.976 434.448 35.28 433.552 35.888C432.656 36.496 431.984 37.392 431.536 38.576C431.088 39.76 430.912 41.2 431.008 42.896C430.88 44.368 431.056 45.664 431.536 46.784C432.016 47.904 432.752 48.784 433.744 49.424C434.736 50.032 435.936 50.336 437.344 50.336C438.624 50.336 439.712 50.08 440.608 49.568C441.536 49.056 442.256 48.352 442.768 47.456L448.528 50.192C448.016 51.472 447.2 52.592 446.08 53.552C444.992 54.512 443.696 55.264 442.192 55.808C440.688 56.32 439.04 56.576 437.248 56.576ZM464.24 56.576C461.36 56.576 458.848 55.904 456.704 54.56C454.592 53.184 453.152 51.344 452.384 49.04L457.664 46.544C458.336 47.952 459.248 49.056 460.4 49.856C461.552 50.656 462.832 51.056 464.24 51.056C465.264 51.056 466.048 50.848 466.592 50.432C467.136 50.016 467.408 49.44 467.408 48.704C467.408 48.32 467.312 48 467.12 47.744C466.928 47.456 466.64 47.2 466.256 46.976C465.872 46.752 465.392 46.56 464.816 46.4L460.352 45.152C458.208 44.544 456.56 43.568 455.408 42.224C454.256 40.848 453.68 39.232 453.68 37.376C453.68 35.744 454.096 34.32 454.928 33.104C455.76 31.888 456.928 30.944 458.432 30.272C459.936 29.568 461.664 29.216 463.616 29.216C466.176 29.216 468.416 29.824 470.336 31.04C472.288 32.224 473.664 33.904 474.464 36.08L469.136 38.576C468.752 37.488 468.048 36.624 467.024 35.984C466.032 35.312 464.896 34.976 463.616 34.976C462.688 34.976 461.952 35.168 461.408 35.552C460.896 35.936 460.64 36.464 460.64 37.136C460.64 37.488 460.736 37.808 460.928 38.096C461.12 38.384 461.424 38.64 461.84 38.864C462.288 39.088 462.832 39.296 463.472 39.488L467.648 40.736C469.824 41.376 471.488 42.352 472.64 43.664C473.792 44.944 474.368 46.528 474.368 48.416C474.368 50.048 473.936 51.472 473.072 52.688C472.24 53.904 471.072 54.864 469.568 55.568C468.064 56.24 466.288 56.576 464.24 56.576ZM108.16 115.576C105.6 115.576 103.216 115.112 101.008 114.184C98.832 113.256 96.928 111.96 95.296 110.296C93.664 108.632 92.384 106.68 91.456 104.44C90.56 102.2 90.112 99.752 90.112 97.096C90.112 94.44 90.56 91.992 91.456 89.752C92.352 87.48 93.616 85.528 95.248 83.896C96.88 82.232 98.784 80.952 100.96 80.056C103.168 79.128 105.568 78.664 108.16 78.664C110.752 78.664 113.072 79.096 115.12 79.96C117.2 80.824 118.96 81.976 120.4 83.416C121.84 84.856 122.864 86.456 123.472 88.216L116.896 91.384C116.288 89.656 115.216 88.232 113.68 87.112C112.176 85.96 110.336 85.384 108.16 85.384C106.048 85.384 104.192 85.88 102.592 86.872C100.992 87.864 99.744 89.24 98.848 91C97.984 92.728 97.552 94.76 97.552 97.096C97.552 99.432 97.984 101.48 98.848 103.24C99.744 105 100.992 106.376 102.592 107.368C104.192 108.36 106.048 108.856 108.16 108.856C110.336 108.856 112.176 108.296 113.68 107.176C115.216 106.024 116.288 104.584 116.896 102.856L123.472 106.024C122.864 107.784 121.84 109.384 120.4 110.824C118.96 112.264 117.2 113.416 115.12 114.28C113.072 115.144 110.752 115.576 108.16 115.576ZM127.718 115V88.792H134.438V95.08L133.958 94.168C134.534 91.96 135.478 90.472 136.79 89.704C138.134 88.904 139.718 88.504 141.542 88.504H143.078V94.744H140.822C139.062 94.744 137.638 95.288 136.55 96.376C135.462 97.432 134.918 98.936 134.918 100.888V115H127.718ZM146.234 115V88.792H153.434V115H146.234ZM146.234 86.44V79.24H153.434V86.44H146.234ZM171.567 115.576C168.943 115.576 166.575 114.984 164.463 113.8C162.383 112.584 160.719 110.936 159.471 108.856C158.255 106.776 157.646 104.44 157.646 101.848C157.646 99.256 158.255 96.936 159.471 94.888C160.687 92.808 162.351 91.176 164.463 89.992C166.575 88.808 168.943 88.216 171.567 88.216C173.519 88.216 175.327 88.552 176.991 89.224C178.655 89.896 180.079 90.84 181.263 92.056C182.447 93.24 183.295 94.648 183.807 96.28L177.567 98.968C177.119 97.656 176.351 96.616 175.263 95.848C174.207 95.08 172.975 94.696 171.567 94.696C170.319 94.696 169.199 95 168.207 95.608C167.247 96.216 166.479 97.064 165.903 98.152C165.359 99.24 165.087 100.488 165.087 101.896C165.087 103.304 165.359 104.552 165.903 105.64C166.479 106.728 167.247 107.576 168.207 108.184C169.199 108.792 170.319 109.096 171.567 109.096C173.007 109.096 174.255 108.712 175.311 107.944C176.367 107.176 177.119 106.136 177.567 104.824L183.807 107.56C183.327 109.096 182.495 110.472 181.311 111.688C180.127 112.904 178.703 113.864 177.039 114.568C175.375 115.24 173.551 115.576 171.567 115.576ZM188.046 115V78.664H195.246V101.944L192.558 101.08L204.126 88.792H213.006L203.502 99.352L212.958 115H204.798L196.878 101.704L201.054 100.648L193.038 109.384L195.246 105.208V115H188.046ZM228.327 115.576C225.543 115.576 223.127 114.968 221.079 113.752C219.031 112.504 217.447 110.84 216.327 108.76C215.207 106.68 214.646 104.376 214.646 101.848C214.646 99.224 215.223 96.888 216.375 94.84C217.559 92.792 219.143 91.176 221.127 89.992C223.111 88.808 225.351 88.216 227.847 88.216C229.927 88.216 231.767 88.552 233.367 89.224C234.967 89.864 236.311 90.776 237.399 91.96C238.519 93.144 239.367 94.52 239.943 96.088C240.519 97.624 240.807 99.304 240.807 101.128C240.807 101.64 240.775 102.152 240.711 102.664C240.679 103.144 240.599 103.56 240.471 103.912H220.839V98.632H236.391L232.983 101.128C233.303 99.752 233.287 98.536 232.935 97.48C232.583 96.392 231.959 95.544 231.063 94.936C230.199 94.296 229.127 93.976 227.847 93.976C226.599 93.976 225.527 94.28 224.631 94.888C223.735 95.496 223.063 96.392 222.615 97.576C222.167 98.76 221.991 100.2 222.087 101.896C221.959 103.368 222.135 104.664 222.615 105.784C223.095 106.904 223.831 107.784 224.823 108.424C225.815 109.032 227.015 109.336 228.423 109.336C229.703 109.336 230.791 109.08 231.687 108.568C232.615 108.056 233.335 107.352 233.847 106.456L239.607 109.192C239.095 110.472 238.279 111.592 237.159 112.552C236.071 113.512 234.775 114.264 233.271 114.808C231.767 115.32 230.119 115.576 228.327 115.576ZM257.67 115.288C254.502 115.288 252.038 114.44 250.278 112.744C248.55 111.016 247.686 108.616 247.686 105.544V95.032H243.27V88.792H243.51C244.854 88.792 245.878 88.456 246.582 87.784C247.318 87.112 247.686 86.104 247.686 84.76V82.84H254.886V88.792H261.03V95.032H254.886V105.064C254.886 105.96 255.046 106.712 255.366 107.32C255.686 107.896 256.182 108.328 256.854 108.616C257.526 108.904 258.358 109.048 259.35 109.048C259.574 109.048 259.83 109.032 260.118 109C260.406 108.968 260.71 108.936 261.03 108.904V115C260.55 115.064 260.006 115.128 259.398 115.192C258.79 115.256 258.214 115.288 257.67 115.288ZM274.402 115V79.24H289.522C291.986 79.24 294.098 79.656 295.858 80.488C297.618 81.32 298.962 82.52 299.89 84.088C300.818 85.624 301.282 87.496 301.282 89.704C301.282 91.272 300.85 92.776 299.986 94.216C299.122 95.624 297.698 96.808 295.714 97.768V94.12C297.602 94.856 299.058 95.736 300.082 96.76C301.106 97.784 301.81 98.904 302.194 100.12C302.578 101.304 302.77 102.552 302.77 103.864C302.77 107.384 301.602 110.12 299.266 112.072C296.93 114.024 293.682 115 289.522 115H274.402ZM281.842 108.52H290.386C291.89 108.52 293.09 108.088 293.986 107.224C294.882 106.36 295.33 105.24 295.33 103.864C295.33 102.456 294.882 101.32 293.986 100.456C293.09 99.592 291.89 99.16 290.386 99.16H281.842V108.52ZM281.842 92.68H290.05C291.202 92.68 292.114 92.36 292.786 91.72C293.49 91.048 293.842 90.168 293.842 89.08C293.842 87.992 293.49 87.128 292.786 86.488C292.114 85.816 291.202 85.48 290.05 85.48H281.842V92.68ZM320.023 115.576C317.431 115.576 315.063 114.984 312.919 113.8C310.807 112.616 309.111 111 307.831 108.952C306.583 106.872 305.959 104.52 305.959 101.896C305.959 99.24 306.583 96.888 307.831 94.84C309.111 92.792 310.807 91.176 312.919 89.992C315.063 88.808 317.431 88.216 320.023 88.216C322.615 88.216 324.967 88.808 327.079 89.992C329.191 91.176 330.871 92.792 332.119 94.84C333.399 96.888 334.039 99.24 334.039 101.896C334.039 104.52 333.399 106.872 332.119 108.952C330.871 111 329.191 112.616 327.079 113.8C324.967 114.984 322.615 115.576 320.023 115.576ZM320.023 109.096C321.335 109.096 322.471 108.792 323.431 108.184C324.423 107.576 325.191 106.728 325.735 105.64C326.311 104.552 326.599 103.304 326.599 101.896C326.599 100.488 326.311 99.256 325.735 98.2C325.191 97.112 324.423 96.264 323.431 95.656C322.471 95.016 321.335 94.696 320.023 94.696C318.711 94.696 317.559 95.016 316.567 95.656C315.575 96.264 314.791 97.112 314.215 98.2C313.671 99.256 313.399 100.488 313.399 101.896C313.399 103.304 313.671 104.552 314.215 105.64C314.791 106.728 315.575 107.576 316.567 108.184C317.559 108.792 318.711 109.096 320.023 109.096ZM346.393 115.576C344.505 115.576 342.873 115.272 341.497 114.664C340.121 114.056 339.065 113.192 338.329 112.072C337.593 110.92 337.225 109.56 337.225 107.992C337.225 106.52 337.561 105.224 338.233 104.104C338.905 102.952 339.929 101.992 341.305 101.224C342.713 100.456 344.457 99.912 346.537 99.592L354.553 98.296V103.576L347.833 104.776C346.809 104.968 346.025 105.304 345.481 105.784C344.937 106.232 344.665 106.888 344.665 107.752C344.665 108.552 344.969 109.176 345.577 109.624C346.185 110.072 346.937 110.296 347.833 110.296C349.017 110.296 350.057 110.04 350.953 109.528C351.849 109.016 352.537 108.328 353.017 107.464C353.529 106.568 353.785 105.592 353.785 104.536V97.72C353.785 96.728 353.385 95.896 352.585 95.224C351.817 94.552 350.761 94.216 349.417 94.216C348.137 94.216 347.001 94.568 346.009 95.272C345.049 95.976 344.345 96.904 343.897 98.056L338.137 95.32C338.649 93.848 339.465 92.584 340.585 91.528C341.705 90.472 343.049 89.656 344.617 89.08C346.185 88.504 347.897 88.216 349.753 88.216C351.961 88.216 353.913 88.616 355.609 89.416C357.305 90.216 358.617 91.336 359.545 92.776C360.505 94.184 360.985 95.832 360.985 97.72V115H354.265V110.776L355.897 110.488C355.129 111.64 354.281 112.6 353.353 113.368C352.425 114.104 351.385 114.648 350.233 115C349.081 115.384 347.801 115.576 346.393 115.576ZM366.265 115V88.792H372.985V95.08L372.505 94.168C373.081 91.96 374.025 90.472 375.337 89.704C376.681 88.904 378.265 88.504 380.089 88.504H381.625V94.744H379.369C377.609 94.744 376.185 95.288 375.097 96.376C374.009 97.432 373.465 98.936 373.465 100.888V115H366.265ZM397.117 115.576C394.557 115.576 392.269 114.968 390.253 113.752C388.237 112.536 386.637 110.888 385.453 108.808C384.301 106.728 383.725 104.424 383.725 101.896C383.725 99.336 384.317 97.032 385.501 94.984C386.685 92.904 388.285 91.256 390.301 90.04C392.317 88.824 394.573 88.216 397.069 88.216C398.989 88.216 400.685 88.584 402.157 89.32C403.661 90.024 404.845 91.032 405.709 92.344L404.605 93.784V78.664H411.805V115H405.085V110.2L405.757 111.688C404.861 112.968 403.645 113.944 402.109 114.616C400.573 115.256 398.909 115.576 397.117 115.576ZM397.981 109.096C399.293 109.096 400.445 108.792 401.437 108.184C402.429 107.576 403.197 106.728 403.741 105.64C404.317 104.552 404.605 103.304 404.605 101.896C404.605 100.488 404.317 99.24 403.741 98.152C403.197 97.064 402.429 96.216 401.437 95.608C400.445 95 399.293 94.696 397.981 94.696C396.669 94.696 395.485 95.016 394.429 95.656C393.405 96.264 392.605 97.112 392.029 98.2C391.453 99.256 391.165 100.488 391.165 101.896C391.165 103.304 391.453 104.552 392.029 105.64C392.605 106.728 393.405 107.576 394.429 108.184C395.485 108.792 396.669 109.096 397.981 109.096Z" fill="white"/>
<defs>
<clipPath id="clip0_7014_84161">
<rect width="56" height="132" fill="white"/>
</clipPath>
</defs>
</svg>
