<svg width="140" height="48" viewBox="0 0 140 48" fill="none" xmlns="http://www.w3.org/2000/svg">
<path d="M126.819 7.65106C131.625 7.65106 132.731 10.5354 132.731 15.1518C132.731 18.8521 131.843 22.6526 127.177 22.6526H122.034V7.65464H126.819V7.65106ZM125.015 19.9579H126.794C127.803 19.9579 128.573 19.7647 129.052 18.9953C129.557 18.1794 129.675 16.9054 129.675 14.8835C129.675 13.2981 129.532 11.9526 128.977 11.1832C128.544 10.5569 127.8 10.3422 126.79 10.3422H125.012V19.9579H125.015Z" fill="#F6363A"/>
<path d="M58.8433 31.0337C58.8433 27.5732 60.8151 25.8161 64.2291 25.8161C67.6432 25.8161 69.615 27.5696 69.615 31.0337V35.8899C69.615 39.3504 67.6432 41.1075 64.2291 41.1075C60.8151 41.1075 58.8433 39.354 58.8433 35.8899V31.0337ZM61.8243 35.9114C61.8243 37.4001 62.5221 38.3162 64.2291 38.3162C65.9361 38.3162 66.634 37.4037 66.634 35.9114V31.0087C66.634 29.52 65.9361 28.6038 64.2291 28.6038C62.5221 28.6038 61.8243 29.5164 61.8243 31.0087V35.9114Z" fill="#F6363A"/>
<path d="M71.4399 31.0337C71.4399 27.5732 73.4118 25.8161 76.8258 25.8161C80.2398 25.8161 82.208 27.5696 82.208 31.0337V35.8899C82.208 39.3504 80.2362 41.1075 76.8258 41.1075C73.4153 41.1075 71.4399 39.354 71.4399 35.8899V31.0337V31.0337ZM74.4209 35.9114C74.4209 37.4001 75.1188 38.3162 76.8258 38.3162C78.5328 38.3162 79.2306 37.4037 79.2306 35.9114V31.0087C79.2306 29.52 78.5328 28.6038 76.8258 28.6038C75.1188 28.6038 74.4209 29.5164 74.4209 31.0087V35.9114Z" fill="#F6363A"/>
<path d="M100.627 25.9629C101.973 25.9629 103.343 26.2027 104.281 27.2834C104.857 27.9562 105.193 28.8687 105.193 29.9745C105.193 31.2235 104.689 32.136 103.919 32.7873C105.433 33.5567 106.034 34.7591 106.034 36.3946C106.034 39.329 104.639 40.9609 100.938 40.9609H95.8425V25.9629H100.624H100.627ZM98.8235 31.8282H100.674C101.901 31.8282 102.309 31.202 102.309 30.1213C102.309 29.1586 101.851 28.4858 100.674 28.4858H98.8235V31.8282ZM98.8235 38.438H100.892C102.381 38.438 103.007 37.6686 103.007 36.3946C103.007 35.1206 102.431 34.4227 100.677 34.4227H98.8271V38.438H98.8235Z" fill="#F6363A"/>
<path d="M114.466 25.9629L118.914 40.9609H115.718L114.902 37.8582H110.816L110.021 40.9609H106.994L111.32 25.9629H114.469H114.466ZM111.535 35.2172H114.205L112.909 30.1463H112.859L111.535 35.2172Z" fill="#F6363A"/>
<path d="M51.6001 16.4223H56.7891V13.7311H51.6001V10.3672H56.739L57.5227 7.65106H48.6191V22.6491H57.2471V19.9544H51.6001V16.4223Z" fill="#F6363A"/>
<path d="M93.8279 19.9579H88.2059V7.65106H85.2285V22.6491H93.0513L93.8279 19.9579Z" fill="#F6363A"/>
<path d="M94.361 25.9629H83.4963V28.6791H87.3183V40.9609H90.2993V28.6791H93.5809L94.361 25.9629Z" fill="#F6363A"/>
<path d="M129.5 38.2698H123.548V25.9629H120.571V40.9609H128.723L129.5 38.2698Z" fill="#F6363A"/>
<path d="M139.906 38.2698H133.958V25.9629H130.981V40.9609H139.13L139.906 38.2698Z" fill="#F6363A"/>
<path d="M51.6001 28.6791H56.7855L57.5692 25.9629H48.6191V40.9609H51.6001V34.7377H56.7891V32.043H51.6001V28.6791Z" fill="#F6363A"/>
<path d="M78.5902 14.8369L77.8208 17.4314H80.1934V17.6962C80.1934 17.8036 80.1934 17.911 80.1827 18.0112C80.0825 19.4999 79.2594 20.0045 77.9102 20.0045C76.2283 20.0045 75.5054 19.0919 75.5054 17.5996V12.6969C75.5054 11.2082 76.2283 10.2921 77.9102 10.2921C79.2343 10.2921 79.9501 10.7823 80.0574 12.221C80.0681 12.3498 80.0753 12.4822 80.0753 12.6253V12.8401H83.0563V12.5752C83.0563 9.11471 81.2527 7.50433 77.9102 7.50433C74.5678 7.50433 72.5244 9.25786 72.5244 12.722V17.5781C72.5244 21.0387 74.4962 22.7958 77.9102 22.7958C81.3242 22.7958 83.1744 21.1603 83.1744 17.7249V14.8405H78.5902V14.8369Z" fill="#F6363A"/>
<path d="M31.2556 11.9455C31.2019 11.9455 31.1447 11.9455 31.091 11.9455C29.7705 11.9276 28.543 11.4802 27.2404 11.0043C26.4817 10.7251 25.6944 10.4424 24.8534 10.2277C24.5994 11.5196 25.7588 12.6326 27.5875 12.6111C28.2209 12.6039 28.4464 12.425 28.9868 12.425C29.3231 12.425 29.5736 12.6648 29.5736 12.9618C29.5736 13.3411 29.316 13.6238 28.7756 13.6238C28.5537 13.6238 28.246 13.563 28.067 13.4556C27.4909 13.4556 27.3012 13.7849 27.244 14.157C27.0901 14.2537 26.997 14.4183 26.997 14.6044V14.973C26.997 14.973 27.3835 14.7368 27.7879 14.7368C27.8022 14.7368 28.4929 14.7368 28.4929 14.7368C28.3247 14.9479 28.0706 15.0911 27.7843 15.109C27.5267 15.3845 27.4444 15.7817 27.634 16.1253C27.5553 16.2792 27.5589 16.4653 27.6448 16.6191L27.8273 16.9412C27.8273 16.9412 28.0456 16.5225 28.4178 16.315C28.611 16.2076 29.0655 15.9428 29.0655 15.9428C28.9152 16.3364 29.0726 16.7229 29.4019 16.9233C29.4198 17.0879 29.5164 17.2382 29.6667 17.3205L29.9888 17.5031C29.9888 17.5031 30.0031 16.9627 30.2106 16.6156C30.4182 16.2684 30.9407 15.3738 30.9407 15.3738H31.7888L31.7996 13.6453C31.7996 13.1192 32.1145 12.6218 32.6405 11.8596C32.186 11.9168 31.7316 11.9455 31.2592 11.9455" fill="#F6363A"/>
<path d="M35.6717 8.49206C35.0848 8.49206 34.6589 8.42407 34.2116 8.05547L33.7893 7.65109L35.593 7.6332C35.593 7.6332 38.7314 7.46142 39.6189 5.58623C39.8909 5.01007 40.0126 4.35876 39.9195 3.73608C39.83 3.10624 39.5402 2.50861 39.1072 2.05413C38.6742 1.59606 37.9978 1.10579 36.7632 1.09148C33.6856 1.05569 31.5992 3.22434 27.9383 3.42474C25.6551 3.54999 22.0658 3.52852 19.1349 3.51778C18.8951 3.51778 18.7162 3.32812 18.7448 3.09193C18.7591 2.90942 18.9202 2.74122 19.1134 2.73407L27.5339 2.67323C28.8544 2.67323 29.9173 1.47081 29.9173 0C29.5594 0.382912 29.1264 0.54395 28.765 0.601208C28.8043 0.407963 28.8294 0.20756 28.8294 0C28.3248 0.468799 27.3263 0.611944 26.9005 0.611944H26.0703C25.4046 0.611944 24.7784 0.923284 24.3597 1.4064C24.3597 1.4064 19.1528 1.40998 19.0311 1.40998C17.9396 1.40998 17.4744 2.35115 17.4064 2.91658C17.3062 3.77544 17.8036 4.79535 19.1027 4.88124C21.6149 4.89913 27.5554 4.89913 28.7292 4.77388C30.3073 4.60568 31.3595 4.20846 32.2756 3.9329C33.503 3.56073 34.9739 2.5945 36.7274 2.63744C38.0193 2.66965 38.2877 3.64661 38.3306 3.94722C38.3736 4.2514 38.3163 4.56632 38.1803 4.83829C37.5433 6.1266 34.6232 6.28763 31.6171 6.06934C26.5605 5.70432 22.5346 5.24984 17.4851 6.08723C16.8088 6.19817 16.1754 6.3771 15.5813 6.60255C15.6135 7.12503 15.5563 7.88012 15.1912 8.7712L15.0374 9.14695L14.6688 8.98234C14.6294 8.96444 14.59 8.94655 14.5471 8.92866C14.3109 9.29725 14.0461 9.61575 13.7562 9.88057L13.5522 10.0702L13.3089 9.93783C13.1801 9.86983 13.0476 9.83405 12.9188 9.83405C12.6182 9.83405 12.3427 10.0345 12.2174 10.3422C11.6448 11.7343 11.1546 11.7772 9.84837 11.8918C9.76606 11.8989 9.45114 11.9275 9.45114 11.9275C9.45114 11.9275 8.90719 11.5697 8.81772 11.5088C7.21808 11.4623 5.16395 11.1152 4.28361 10.8325C3.80765 10.6822 3.48916 10.2026 3.48916 9.67659C3.48916 9.60859 3.49631 9.54418 3.50705 9.47976C3.37822 9.12906 2.98815 8.91076 2.63029 8.9716C2.48714 8.81772 2.26885 8.76404 2.07202 8.83203L1.72132 8.95371C1.72132 8.95371 2.15075 9.35451 2.26527 9.68374L2.44062 10.1848C2.19369 10.0846 1.98971 9.9092 1.85373 9.68732C1.5066 9.51555 1.07359 9.57996 0.794454 9.87341C0.594051 9.81257 0.375756 9.87341 0.239768 10.0345L0 10.3172C0 10.3172 0.461643 10.3744 0.833819 10.675C0.840976 10.6786 1.36703 11.1259 1.36703 11.1259C0.973385 11.151 0.633417 11.4265 0.540372 11.8202C0.336391 11.8667 0.178932 12.0277 0.139567 12.2317L0.0679947 12.5967C0.0679947 12.5967 0.876763 12.425 1.29546 12.5144L2.5945 12.9117C2.5945 12.9117 3.9508 12.9117 4.43749 12.9117C4.98144 12.9117 5.42161 13.3518 5.42161 13.8958C6.13018 14.1857 7.465 14.7117 9.03602 16.1002C9.37956 15.8175 9.64796 15.5241 9.90562 15.1841C10.31 15.2771 10.7538 15.3415 11.0257 15.3773C12.1709 14.7332 13.8171 13.0942 15.202 12.0098C16.0966 11.3084 17.3599 10.4496 18.9989 9.92351C19.1921 10.3529 19.4963 10.6893 19.7826 10.8933C20.6952 10.2635 22.4845 9.22926 24.8893 9.81615C27.2369 10.4138 29.019 11.5375 31.2056 11.5446C32.3328 11.5446 33.4207 11.3693 34.4371 11.0436C34.8808 10.9184 35.0776 10.8361 35.6538 10.8361C36.23 10.8361 36.6451 11.2798 36.6451 11.8273C36.6451 12.3749 36.2013 12.8186 35.6538 12.8186C35.2673 12.8186 34.9309 12.5967 34.7663 12.2711C34.3261 12.0385 33.9074 12.1494 33.6641 12.4035C33.4458 12.3928 33.2418 12.5073 33.1452 12.7041L32.9698 13.0476C32.9698 13.0476 33.5066 13.0405 33.7571 13.1836L34.3297 13.4986C34.2259 13.5379 34.1114 13.5594 33.9933 13.5594C33.8537 13.5594 33.7213 13.5308 33.6032 13.4771C33.1488 13.5451 32.7981 13.9244 32.7981 14.3861C32.7981 14.3861 32.7981 14.8262 32.7981 14.8405C32.6227 14.9372 32.5153 15.1197 32.5153 15.3201V15.7066C32.5153 15.7066 33.1201 15.3988 33.7213 15.3988H37.0817L37.8403 13.724H38.5847C38.5847 13.724 38.5847 12.6934 38.5847 12.6719C38.5847 11.9347 39.1644 11.3299 39.9052 11.2619C39.6082 9.24715 37.8224 8.49564 35.6645 8.49564" fill="#F6363A"/>
<path d="M15.1339 6.2017C15.66 6.04066 16.0465 5.78658 16.1789 5.45377C16.4938 4.645 16.5224 3.91854 16.2719 3.03104C15.7566 2.73044 15.1661 2.68034 14.819 2.68034C14.6365 2.68034 14.522 2.69465 14.522 2.69465C14.2142 1.76421 13.0333 1.00554 12.2567 0.672729C12.2567 0.672729 12.1923 0.848082 12.0205 1.04491C11.9633 1.03059 11.9203 1.01986 11.9167 1.01986C11.609 0.944705 11.3191 0.90892 11.04 0.90892C10.3743 0.90892 9.79461 1.10574 9.30433 1.39203C9.28644 1.3813 8.54925 0.865975 7.68322 0.865975C7.65817 0.865975 7.62954 0.865975 7.60449 0.865975C6.9675 1.5316 6.649 2.18649 6.5488 3.04893C6.50943 3.40679 6.73131 3.81476 7.12138 4.20483L7.15358 4.22988C6.92813 4.98139 6.64184 5.53249 6.18378 6.18022C6.34124 6.30548 6.51301 6.39852 6.72415 6.47725C6.73489 6.98184 6.80646 7.49358 6.97465 7.96953C7.75837 7.96953 8.20212 8.60295 8.1377 9.265C8.00529 10.6106 8.27727 10.6821 9.54768 11.5231C11.0364 11.3871 11.3334 11.4372 11.8487 10.1883C12.0312 9.74453 12.4392 9.44035 12.9116 9.44035C13.0977 9.44035 13.2909 9.48687 13.4877 9.59065C13.8456 9.26142 14.1426 8.86061 14.3824 8.43834C14.5255 8.49201 14.6758 8.55643 14.8226 8.62442C15.2091 7.68325 15.252 6.81722 15.1268 6.19454M8.62798 3.81834V3.76108L8.63155 3.7074L8.67808 3.73603L9.38306 4.06884C9.32581 4.10463 9.27571 4.15115 9.2435 4.20483C9.12183 4.40881 9.18982 4.67005 9.40096 4.78814C9.46895 4.82751 9.5441 4.8454 9.61925 4.8454C9.76598 4.8454 9.9127 4.77025 9.99501 4.63426C10.0451 4.54837 10.0558 4.45891 10.0487 4.36944C10.0487 4.36944 10.5246 4.58058 10.4423 5.146C10.3779 5.59333 10.063 6.10149 10.063 6.10149C10.063 6.10149 9.83755 5.9834 9.98069 5.60049C10.1489 5.12811 10.0773 5.12095 10.0773 5.12095C10.0773 5.12095 9.99143 5.13527 9.8626 5.13527C9.68367 5.13527 9.42601 5.11022 9.21129 4.98497L9.1755 4.95992C8.60292 4.60921 8.6244 3.89349 8.62798 3.81118M11.4372 8.52064C10.7501 8.84272 11.1223 9.69443 10.8646 10.1167C10.7143 10.3672 10.5211 10.4746 10.2419 10.4746C10.1131 10.4746 9.96638 10.4531 9.79819 10.4102C9.25781 10.2777 9.02162 10.0809 9.00015 9.65506C8.97868 9.16479 9.7123 8.58506 9.26497 7.98385C8.8749 7.45779 8.925 7.1894 8.925 7.1894C8.925 7.1894 9.06099 7.31107 9.33296 7.46853C9.37591 7.49358 9.54768 7.58305 9.74808 7.63315C9.82323 7.65104 9.90554 7.66535 9.98427 7.66535C10.1775 7.66535 10.3636 7.58662 10.4423 7.33612C10.496 7.17866 10.3779 7.07488 10.2741 6.99615C10.2169 6.95321 10.0057 6.82796 9.9628 6.7707C9.84471 6.6204 9.9628 6.42715 9.9628 6.42715C9.9628 6.42715 10.224 6.78143 10.7036 6.89953C10.8181 6.92816 10.9255 6.93889 11.0221 6.93889C11.3298 6.93889 11.5267 6.83153 11.5267 6.83153C11.5267 6.83153 11.5374 7.06057 11.362 7.13572C11.294 7.16435 11.1008 7.17508 11.0328 7.18582C10.904 7.20729 10.7537 7.24307 10.7215 7.40769C10.6499 7.77271 10.9219 7.92659 11.1867 7.99458C11.3585 8.03753 11.5302 8.04111 11.6018 8.04111C11.6125 8.04111 11.6233 8.04111 11.6304 8.04111C11.9454 8.03037 12.1243 7.98385 12.1243 7.98385C12.1243 7.98385 12.0384 8.24509 11.4408 8.52422M13.9995 5.08159L13.978 5.13169C13.9386 5.21042 13.6058 5.84384 12.9331 5.87962L12.8865 5.88678C12.8865 5.88678 12.8722 5.88678 12.8651 5.88678C12.4464 5.88678 12.0599 5.58975 12.0599 5.58975C12.0491 5.58975 11.9883 5.6148 11.9131 6.05497C11.8559 6.44504 11.6054 6.44862 11.5947 6.44862C11.5947 6.44862 11.566 5.85457 11.7342 5.43587C11.9131 4.97781 12.3211 4.9456 12.432 4.9456C12.4499 4.9456 12.4607 4.9456 12.4607 4.9456C12.4106 5.01717 12.3748 5.10664 12.3784 5.19968C12.3819 5.43229 12.5752 5.6148 12.8042 5.6148C12.8078 5.6148 12.815 5.6148 12.8185 5.6148C13.0619 5.61123 13.248 5.4144 13.2408 5.18179C13.2408 5.1138 13.2193 5.05296 13.1871 4.9957L13.9673 5.03507H14.0174L13.9923 5.08159H13.9995Z" fill="#F6363A"/>
<path d="M8.67459 35.9651H8.67817C10.3601 36.0009 11.7987 36.8812 12.45 38.3306C13.495 38.9354 15.2986 39.9803 18.4049 41.0074C20.4053 41.0861 23.1251 41.0718 26.6607 40.8034C26.4782 40.2881 26.4568 39.6618 26.6357 38.8209C26.7073 38.4952 26.6464 38.166 26.4711 37.919C26.3029 37.6864 26.0488 37.5433 25.7303 37.5039L25.3939 37.4646L25.2687 37.1532C25.0074 36.4948 24.9251 35.8864 24.9144 35.3389C24.0305 35.3067 20.7167 35.1277 18.0864 34.1078C17.7536 34.5229 17.4422 34.7663 17.3635 34.8271C14.8549 34.2223 12.3463 33.4064 10.5677 32.3937C10.353 32.4581 10.1239 32.4974 9.88775 32.4974C8.6746 32.4974 7.67616 31.5634 7.57596 30.3753C7.56164 30.2787 7.56522 29.8385 7.58312 29.724C7.35409 29.1049 6.66699 28.722 6.03357 28.8222C5.78307 28.5502 5.39658 28.4536 5.04587 28.5753L4.42677 28.79C4.42677 28.79 5.18544 29.4986 5.38942 30.0783L5.69718 30.9622C5.26417 30.7869 4.90273 30.4755 4.65938 30.0854C4.04386 29.7813 3.36392 29.8135 2.87007 30.3288C2.51579 30.2214 2.13288 30.3288 1.89311 30.6115L1.46725 31.1089C1.46725 31.1089 2.28318 31.2091 2.93807 31.7388C2.9488 31.7459 3.88282 32.5368 3.88282 32.5368C3.18857 32.5797 2.58378 33.0664 2.41917 33.7643C2.06131 33.8466 1.78217 34.1329 1.71418 34.4943L1.58893 35.1385C1.58893 35.1385 3.44623 34.888 4.18343 35.0454L6.74572 35.9723C6.74572 35.9723 7.80499 35.9723 8.66028 35.9687" fill="#F6363A"/>
<path d="M30.9443 37.1389C30.658 37.3608 30.2536 37.4216 29.7741 37.3035C29.7061 37.2856 29.6417 37.2677 29.5809 37.2463C30.0568 37.9799 29.7025 38.6813 29.4413 39.2002C29.3196 39.4435 29.1944 39.6905 29.2015 39.8551C29.2158 40.1664 29.2803 40.3883 30.0461 40.5815C30.8155 40.7748 30.9801 40.6138 31.1411 40.3454C31.227 40.2058 31.2378 39.9267 31.2485 39.6583C31.2735 39.0821 31.3058 38.302 32.0823 37.8797C32.0179 37.869 31.9535 37.8546 31.8855 37.8367C31.4095 37.7151 31.0839 37.4681 30.9407 37.1389" fill="#F6363A"/>
<path d="M38.7744 33.639C39.1394 32.7014 39.1752 31.8533 38.8817 30.8226C38.0229 30.3252 36.935 30.404 36.8026 30.4147C36.1405 29.3733 35.2459 28.4894 33.6498 28.0922C33.6212 28.085 32.9198 27.9097 32.8911 27.9025C31.2951 27.5053 30.0926 27.8631 29.0155 28.4715C28.8938 28.3928 27.9848 27.8238 27.0043 27.8596C26.2635 28.6325 25.8949 29.3948 25.7768 30.3968C25.741 30.7368 25.9808 31.1912 26.3172 31.5956C25.1899 32.7444 24.8965 33.7643 24.8249 34.6267C25.1613 34.6518 25.487 34.7126 25.4941 34.7162C25.4548 35.414 25.4798 36.1512 25.7947 36.9457C26.8433 37.0673 27.3908 37.9978 27.1868 38.9425C26.7466 40.9824 27.5769 41.4189 29.4843 42.7681C31.7997 42.4746 32.7408 42.4746 33.3062 40.467C33.5675 39.5366 34.4908 38.9747 35.4713 39.3577C37.4575 37.7473 37.7938 35.822 37.8797 35.3532C37.6292 35.1564 37.4646 34.8665 37.4181 34.5516C38.0229 34.3619 38.6133 34.0219 38.7672 33.639M29.2696 33.3062C28.5109 32.8338 28.5395 31.8855 28.5503 31.7781V31.703L28.5574 31.6314L28.6183 31.6708L29.5523 32.1145C29.4735 32.1646 29.4091 32.2219 29.3662 32.297C29.2052 32.5654 29.2946 32.9126 29.5702 33.0736C29.8421 33.2346 30.1964 33.1452 30.3575 32.8768C30.4255 32.7623 30.4362 32.6442 30.429 32.5225H30.4326C30.4326 32.5225 31.0625 32.8052 30.9515 33.5567C30.8656 34.1508 30.4434 34.8271 30.4434 34.8271C30.4434 34.8271 30.1428 34.6661 30.3396 34.1615C30.565 33.5352 30.4684 33.5245 30.4684 33.5245C30.4684 33.5245 29.8064 33.6211 29.3161 33.3384L29.2696 33.3062V33.3062ZM32.3615 38.2125C31.3487 38.6849 31.8891 39.941 31.5098 40.5637C31.1805 41.1004 30.7332 41.1899 29.9352 40.9895C29.1407 40.7891 28.79 40.4957 28.765 39.8694C28.7364 39.1465 29.8207 38.2984 29.1658 37.4073C28.5968 36.6308 28.6684 36.2335 28.6684 36.2335C28.6684 36.2335 28.8688 36.416 29.266 36.6486C29.3268 36.6844 29.5809 36.8204 29.8744 36.8956C30.268 36.9958 30.7296 36.9815 30.8978 36.459C30.9766 36.2264 30.8048 36.0761 30.6545 35.958C30.5722 35.8936 30.4469 35.8256 30.3789 35.7397C30.2036 35.5178 30.3789 35.2315 30.3789 35.2315C30.3789 35.2315 30.5758 35.6359 31.2807 35.8148C31.9857 35.9938 32.3579 35.7289 32.3579 35.7289C32.3579 35.7289 32.3722 36.0653 32.111 36.1763C32.0108 36.2192 31.8641 36.2228 31.7639 36.2371C31.5742 36.2693 31.3487 36.323 31.3058 36.5592C31.1984 37.096 31.5993 37.3286 31.9893 37.4252C32.2828 37.5004 32.5726 37.5004 32.6442 37.4968C33.1059 37.4825 33.3707 37.418 33.3707 37.418C33.3707 37.418 33.2418 37.801 32.3615 38.2125M35.6789 33.4959L35.6502 33.5603C35.6001 33.6641 35.1492 34.5051 34.2582 34.548L34.1973 34.5552C33.6319 34.5659 33.1023 34.1579 33.1023 34.1579C33.1023 34.1579 33.0164 34.1186 32.8983 34.777C32.8196 35.3067 32.4724 35.2995 32.4724 35.2995C32.4724 35.2995 32.4366 34.5086 32.6621 33.9539C32.9412 33.249 33.6319 33.3098 33.6319 33.3098H33.6355C33.5675 33.4064 33.5174 33.5209 33.521 33.6462C33.5281 33.9647 33.7894 34.2116 34.1079 34.2009C34.4335 34.1973 34.6804 33.936 34.6733 33.6247C34.6733 33.5317 34.6447 33.4529 34.6017 33.3778L35.6359 33.435H35.7039L35.6717 33.4995L35.6789 33.4959Z" fill="#F6363A"/>
<path d="M10.4747 7.81217C10.2814 7.96248 10.0059 8.009 9.68024 7.92669C9.63371 7.91595 9.59077 7.90164 9.54783 7.88732C9.87348 8.38475 9.63371 8.86071 9.45836 9.21141C9.37605 9.37603 9.29017 9.54422 9.29732 9.65516C9.30806 9.8663 9.351 10.0166 9.87348 10.1454C10.396 10.2743 10.5069 10.1633 10.6178 9.98082C10.6751 9.88419 10.6822 9.6981 10.6894 9.51559C10.7037 9.12552 10.7252 8.59231 11.2477 8.30602C11.2047 8.29886 11.1582 8.29171 11.1153 8.27739C10.7896 8.19866 10.5677 8.03047 10.4711 7.80859" fill="#F6363A"/>
<path d="M31.8999 25.0432C33.9826 24.8177 36.4948 25.741 37.9978 27.5339C38.4094 27.6663 39.0106 27.8596 39.6691 28.0564C39.7013 27.5446 39.7227 27.0257 39.7227 26.4961V23.0427C36.6738 23.0928 33.9755 23.7871 31.8999 25.0468" fill="#F6363A"/>
<path d="M19.6073 21.2856C19.3461 21.486 18.981 21.5397 18.5516 21.4252C18.4908 21.4109 18.4335 21.3894 18.3798 21.3715C18.7985 22.0514 18.4729 22.6884 18.2331 23.1608C18.1222 23.3827 18.0041 23.6081 18.0076 23.7584C18.0148 24.0447 18.0721 24.2487 18.7627 24.4312C19.4534 24.6173 19.6037 24.4706 19.754 24.2237C19.8327 24.0984 19.8471 23.8408 19.8578 23.5938C19.8864 23.0642 19.9222 22.3485 20.6272 21.9691C20.5699 21.9584 20.5091 21.9441 20.4518 21.9298C20.0224 21.8153 19.7325 21.5862 19.6073 21.282" fill="#F6363A"/>
<path d="M25.5979 18.1364L25.6838 18.0362C26.3852 17.2418 26.5677 16.1324 26.6142 15.6064C26.4245 15.6207 26.1705 15.6242 25.9092 15.5849L25.716 15.5563L25.6909 15.363C25.6909 15.363 25.5048 14.1069 24.6316 13.1657C24.3275 13.6023 23.7799 13.8886 23.0678 13.6918C22.3843 13.4699 21.9763 12.7435 22.1517 12.0385C22.1767 11.9311 22.2161 11.8309 22.2662 11.7379C20.8383 11.7486 19.9186 12.5645 19.9079 12.5717L19.7898 12.679L19.6395 12.6218C19.6001 12.6075 18.7591 12.2818 18.3834 11.6234C18.0506 11.9061 17.4851 12.4751 17.2454 13.2624L17.1881 13.4556L16.9877 13.4485C16.4473 13.427 16.1396 13.5665 15.567 13.8457C16.0322 14.8871 15.771 15.907 15.3451 16.5368C14.998 17.0485 14.5256 17.3706 14.0318 17.4386C14.293 18.1973 14.7654 18.5945 14.769 18.5981L14.9372 18.7376L14.8334 18.9273C14.2501 19.9866 14.2536 20.96 14.3002 21.4252C14.9551 21.2606 15.3809 21.2856 15.3809 21.2856C15.3809 21.2856 14.9228 22.4773 15.6457 23.601C15.6851 23.6654 15.7173 23.7334 15.7531 23.7978C16.2076 24.6459 16.2076 25.6014 16.1181 26.4603C16.5726 26.4532 16.9698 26.0953 16.9698 26.0953L17.0307 26.514C17.1487 27.3156 17.3957 27.7987 18.0005 28.3212C18.1508 27.8023 18.5194 27.0043 19.3245 26.9649C19.7468 26.9506 20.0904 27.1796 20.2836 27.3478C21.5039 26.5569 22.0121 25.4297 22.3771 24.3275L22.4666 24.0555C22.4666 24.0555 23.0392 24.2451 23.3863 24.4885C24.5493 23.2968 24.6388 20.7989 24.6388 20.7989C24.6388 20.7989 25.2006 20.9528 25.6122 21.1532C25.8734 20.1977 25.8734 19.4283 25.6301 18.2653L25.605 18.1364H25.5979ZM17.707 16.5583V16.4939L17.7142 16.433L17.7643 16.4688L18.5408 16.8553C18.4764 16.8947 18.4192 16.9448 18.3834 17.0092C18.2438 17.2382 18.3154 17.5352 18.5444 17.6712C18.7699 17.8108 19.0669 17.7356 19.2029 17.5102C19.2601 17.4136 19.2709 17.3134 19.2673 17.2096C19.2673 17.2096 19.7898 17.4565 19.6896 18.0971C19.6108 18.6017 19.253 19.1742 19.253 19.1742C19.253 19.1742 19.0025 19.0347 19.1707 18.6052C19.3639 18.0756 19.2852 18.0649 19.2852 18.0649C19.2852 18.0649 18.7305 18.1436 18.3261 17.8967L18.2867 17.868C17.6569 17.4601 17.6927 16.6513 17.6999 16.5618M20.8705 22.2876C19.9544 22.7099 20.4268 23.8694 20.0761 24.4348C19.7719 24.9251 19.3675 25.0038 18.6553 24.8141C17.9396 24.6209 17.6283 24.3525 17.614 23.7763C17.5961 23.1107 18.5838 22.3449 18.0005 21.5182C17.4959 20.8025 17.5639 20.4375 17.5639 20.4375C17.5639 20.4375 17.7428 20.6057 18.1007 20.824C18.1579 20.8562 18.3834 20.985 18.6482 21.053C18.9989 21.1461 19.4176 21.1389 19.5751 20.6629C19.6466 20.4518 19.4963 20.3087 19.3603 20.2013C19.2852 20.144 19.1742 20.0761 19.1134 19.9973C18.9595 19.7933 19.1206 19.5321 19.1206 19.5321C19.1206 19.5321 19.2923 19.9079 19.9258 20.0761C20.5592 20.2478 20.8956 20.0081 20.8956 20.0081C20.8956 20.0081 20.9063 20.3158 20.6665 20.416C20.5771 20.4554 20.4447 20.4554 20.3516 20.4697C20.1798 20.4983 19.9794 20.5449 19.9365 20.7631C19.8327 21.257 20.1906 21.4717 20.5449 21.5648C20.8097 21.6363 21.0673 21.6363 21.1318 21.6363C21.5505 21.6256 21.7902 21.5683 21.7902 21.5683C21.7902 21.5683 21.6685 21.919 20.8705 22.2876M23.6404 18.0828L23.6153 18.1364C23.5724 18.2259 23.1859 18.9345 22.4415 18.9667L22.3914 18.9738C21.919 18.9774 21.4825 18.6267 21.4825 18.6267C21.4825 18.6267 21.4073 18.5909 21.3071 19.1528C21.2355 19.6037 20.9492 19.5929 20.9492 19.5929C20.9492 19.5929 20.9278 18.9202 21.121 18.4478C21.3608 17.8502 21.9369 17.9074 21.9369 17.9074C21.8797 17.9897 21.8367 18.0863 21.8403 18.1937C21.8403 18.4621 22.0586 18.6768 22.3234 18.6732C22.5954 18.6732 22.803 18.4514 22.803 18.1901C22.803 18.1114 22.7779 18.0434 22.7457 17.979L23.6117 18.0362H23.669L23.6404 18.0899V18.0828Z" fill="#F6363A"/>
<path d="M39.7048 22.5167V17.3599C35.7111 17.181 30.3289 17.8144 26.2564 18.8272C26.5176 20.5735 25.9236 21.8797 25.9236 21.8797L25.3832 21.6221C25.283 21.5756 25.1971 21.5362 25.122 21.5076C24.8929 23.9374 23.4686 25.1756 23.4686 25.1756C23.4686 25.1756 23.1716 24.9144 22.778 24.7641C22.4022 25.8234 21.8225 26.9721 20.5664 27.788L20.2372 28.0027L19.9401 27.7451C19.8292 27.6485 19.6324 27.4874 19.3461 27.491C18.8451 27.4982 18.6268 28.035 18.4979 28.4716L18.3154 29.1801C18.3154 29.1801 18.1437 29.0942 17.657 28.7185C17.1667 28.3427 16.7373 27.6807 16.5762 26.9327C16.0573 27.0723 15.5241 27.0329 15.5241 27.0329C15.5241 27.0329 15.7174 25.8735 15.6136 25.1148C13.037 25.0289 9.42614 24.5351 7.22887 23.6655C6.48452 24.1343 5.62207 23.6011 5.44314 23.483C5.12464 23.1788 4.92066 22.7637 4.92066 22.2877C4.92066 22.1911 4.93139 22.098 4.94571 22.0086C4.7632 21.5111 4.20851 21.2034 3.70393 21.2857C3.50352 21.0674 3.19219 20.9887 2.91305 21.0853L2.41562 21.2571C2.41562 21.2571 3.02399 21.8261 3.18861 22.2913L3.43553 22.9998C3.0884 22.8603 2.79854 22.6098 2.60171 22.2949C2.10786 22.0479 1.56033 22.0766 1.16669 22.4917C0.883975 22.4058 0.576213 22.4917 0.382967 22.7207L0.0429993 23.1215C0.0429993 23.1215 0.697886 23.2002 1.22394 23.6261C1.23468 23.6333 1.98261 24.2667 1.98261 24.2667C1.42792 24.3025 0.941233 24.6925 0.808824 25.2544C0.522534 25.3188 0.29708 25.5514 0.243401 25.8413L0.1432 26.3566C0.1432 26.3566 1.63191 26.1562 2.22596 26.2814L4.21925 27.0186C4.21925 27.0186 6.18391 27.0222 6.43442 27.0222C7.52589 27.0222 8.45991 27.7129 8.646 28.79C8.646 28.7972 10.8504 28.9153 12.9225 29.8779C14.0068 30.404 15.2521 31.2164 16.4903 32.4617C16.909 32.1361 17.3349 31.5921 17.6462 31.1555C19.1457 31.5349 19.8185 31.678 20.5449 31.771C21.6543 31.016 23.2217 29.2052 24.5387 27.9849C25.054 27.5053 25.7053 26.9542 26.5033 26.4461C26.9149 26.3781 27.8167 26.3315 28.9905 26.8612C29.334 26.4818 30.0354 25.7912 30.0354 25.7912C32.3078 23.7406 35.7326 22.5919 39.7156 22.5239" fill="#F6363A"/>
<path d="M7.95171 10.7322C7.70479 10.335 7.69405 9.86263 7.75489 9.22922C7.77994 8.98945 7.70837 8.76042 7.56164 8.59938C7.42208 8.4455 7.22167 8.36319 6.98191 8.36319H6.70277L6.60973 8.10195C6.46301 7.69041 6.37712 7.23592 6.34849 6.74207C5.76875 6.44147 5.53972 6.24107 5.14965 6.01204C5.18186 5.79374 5.1926 5.56471 5.18186 5.33926C5.10313 5.35357 5.0244 5.36431 4.94567 5.36431C4.24068 5.36431 3.67168 4.79531 3.67168 4.09032C3.67168 3.7253 3.82556 3.39964 4.07249 3.16703C4.24784 2.49783 3.7862 2.24375 3.7862 2.24375C3.81125 2.02545 3.686 1.86084 3.51064 1.70338C3.51064 1.70338 3.30666 1.53161 3.17425 1.48508C3.17425 1.48508 3.15278 2.10418 2.96669 2.437C2.78061 2.76981 2.67683 2.93442 2.67683 2.93442C2.62315 2.82349 2.59094 2.69823 2.59094 2.56583C2.59094 2.42268 2.62673 2.29027 2.69114 2.17218C2.67325 1.66044 2.44064 1.4493 2.0613 1.46003C1.97184 1.25963 1.77143 1.1308 1.55314 1.1308H1.16307C1.16307 1.1308 1.45294 1.6497 1.45294 2.04335C1.45294 2.05766 1.45294 2.07555 1.45294 2.09345C1.26685 1.70338 1.00561 1.45645 0.679956 1.45645H0.289886C0.289886 1.45645 0.579755 1.97536 0.579755 2.369C0.579755 2.76265 0.579755 5.46809 0.579755 5.46809C1.01993 5.68996 1.76428 6.06929 1.98257 6.18381C2.25813 6.32338 2.42632 6.62756 2.4299 6.96037C2.4299 7.12141 2.39054 7.27171 2.32254 7.40054C2.90586 7.93018 4.73095 9.70159 6.87455 10.9863C7.33619 11.0472 7.81573 11.0937 8.27737 11.1116C8.14496 10.9935 8.0376 10.8718 7.95171 10.7358" fill="#F6363A"/>
<path d="M15.2914 24.0447C15.2556 23.9803 15.2234 23.9159 15.1876 23.8551C14.9084 23.3505 14.6186 22.828 14.7331 21.8725C14.6436 21.8832 14.5398 21.9047 14.4289 21.9333L13.8384 22.0908L13.7776 21.4824C13.7347 21.0637 13.7275 20.3265 14.0209 19.4713C13.434 19.414 11.4157 19.1456 9.74807 18.1364C9.53693 18.3977 9.48325 18.5122 9.29359 18.6625C7.98381 18.3333 6.92812 17.936 6.1444 17.4171C5.96905 17.6211 5.71139 17.7499 5.42152 17.7499C4.89904 17.7499 4.47318 17.3241 4.47318 16.8016C4.47318 16.4545 4.66285 16.1503 4.94198 15.9857C5.06366 15.2163 4.52686 14.9228 4.52686 14.9228C4.55907 14.6294 4.39445 14.4111 4.16184 14.2035C4.16184 14.2035 3.88987 13.9745 3.71452 13.9137C3.71452 13.9137 3.68589 14.7403 3.43896 15.1805C3.19204 15.6207 3.05605 15.8425 3.05605 15.8425C2.9809 15.6958 2.93796 15.5276 2.93796 15.3523C2.93796 15.1626 2.98806 14.9837 3.07394 14.8262C3.04889 14.1427 2.70177 13.86 2.1936 13.8779C2.07551 13.6095 1.80711 13.4377 1.51367 13.4413H0.991185C0.991185 13.4413 1.38126 14.132 1.38126 14.658C1.38126 14.7224 1.37052 14.8369 1.34905 14.9872C1.21664 14.7654 0.976871 14.6294 0.712053 14.6294H0.189575C0.189575 14.6294 0.579645 15.6242 0.579645 16.1503C0.579645 16.6763 0.579645 19.0812 0.579645 19.2458L4.86325 20.6343C5.50025 20.8419 5.96189 21.4359 5.96905 22.1445C5.96905 22.1767 5.96905 22.2053 5.96905 22.2339C6.69551 22.6526 7.94445 23.1537 10.0845 23.9302C11.4873 24.2201 13.3446 24.5064 15.5061 24.5851C15.4524 24.399 15.3844 24.2165 15.2914 24.0412" fill="#F6363A"/>
<path d="M29.9422 43.2798C29.817 43.2941 29.3375 43.3549 29.3375 43.3549C29.3375 43.3549 28.9367 43.0722 28.8329 43.0006C28.0026 42.4173 27.337 41.9485 26.9362 41.3509C24.4419 41.5441 22.3341 41.6193 20.5698 41.6193C17.324 41.6193 15.2377 41.3652 14.021 41.1398C13.7955 41.2221 13.5486 41.265 13.2945 41.265C12.1136 41.265 11.1581 40.3095 11.1581 39.1286C11.1581 38.9103 11.1903 38.6991 11.2511 38.5023C11.0829 37.8796 10.4423 37.443 9.81966 37.4896C9.60137 37.2033 9.22919 37.0745 8.87849 37.1603L8.25581 37.3142C8.25581 37.3142 8.93217 38.0729 9.08247 38.6562L9.19341 39.0928C8.81765 38.8709 8.52063 38.5381 8.33812 38.1445C7.77627 37.7723 7.11065 37.7222 6.57028 38.1659C6.24104 38.0192 5.85455 38.08 5.58616 38.3234L5.1102 38.7564C5.1102 38.7564 6.01201 38.9675 6.48797 39.5437C6.53807 39.6045 6.64185 39.7334 6.79215 39.9159C6.44145 39.8336 6.07285 39.966 5.85813 40.2558L5.47522 40.7676C5.47522 40.7676 6.40208 40.8034 6.97824 41.2829C7.29316 41.5477 8.58862 42.8432 11.4265 44.4893C11.8666 44.5752 12.7541 44.7363 13.4126 44.8472C13.7311 45.2301 13.9637 45.6166 14.0102 45.9423L17.1165 45.9172C17.2381 45.9172 17.3562 45.9208 17.4815 45.9387C19.4819 46.1892 20.1332 48 20.1332 48C24.467 46.8333 28.1207 45.2015 31.0588 43.1295C30.7188 43.1867 30.3466 43.2333 29.9458 43.2834" fill="#F6363A"/>
<path d="M61.735 7.65106L67.6504 17.095V7.65106H70.4131V22.6491H67.7936L61.9533 13.2981V22.6491H59.187V7.65106H61.735Z" fill="#F6363A"/>
<path d="M102.356 7.65106L106.801 22.6491H103.605L102.789 19.5464H98.7022L97.9113 22.6491H94.8838L99.2103 7.65106H102.36H102.356ZM99.4251 16.9054H102.091L100.796 11.8345H100.746L99.4251 16.9054Z" fill="#F6363A"/>
<path d="M111.009 7.65106L116.921 17.095V7.65106H119.683V22.6491H117.064L111.224 13.2981V22.6491H108.461V7.65106H111.009Z" fill="#F6363A"/>
</svg>
